<?xml version="1.0" encoding="UTF-8" standalone="no"?>
<!-- Created with Inkscape (http://www.inkscape.org/) -->

<svg
   xmlns:dc="http://purl.org/dc/elements/1.1/"
   xmlns:cc="http://creativecommons.org/ns#"
   xmlns:rdf="http://www.w3.org/1999/02/22-rdf-syntax-ns#"
   xmlns:svg="http://www.w3.org/2000/svg"
   xmlns="http://www.w3.org/2000/svg"
   xmlns:sodipodi="http://sodipodi.sourceforge.net/DTD/sodipodi-0.dtd"
   xmlns:inkscape="http://www.inkscape.org/namespaces/inkscape"
   version="1.1"
   id="svg2"
   width="614.40002"
   height="460.79999"
   viewBox="0 0 614.40002 460.79999"
   sodipodi:docname="gaussian_noise.svg"
   inkscape:export-filename="/home/mafontaine/Partage-Telecom/Telecom/2022-2023/presentation/TAD-Gan/Diapo cours/figures/draws/gaussian_noise.png"
   inkscape:export-xdpi="299"
   inkscape:export-ydpi="299"
   inkscape:version="0.92.5 (2060ec1f9f, 2020-04-08)">
  <metadata
     id="metadata8">
    <rdf:RDF>
      <cc:Work
         rdf:about="">
        <dc:format>image/svg+xml</dc:format>
        <dc:type
           rdf:resource="http://purl.org/dc/dcmitype/StillImage" />
        <dc:title></dc:title>
      </cc:Work>
    </rdf:RDF>
  </metadata>
  <defs
     id="defs6" />
  <sodipodi:namedview
     pagecolor="#ffffff"
     bordercolor="#666666"
     borderopacity="1"
     objecttolerance="10"
     gridtolerance="10"
     guidetolerance="10"
     inkscape:pageopacity="0"
     inkscape:pageshadow="2"
     inkscape:window-width="1368"
     inkscape:window-height="836"
     id="namedview4"
     showgrid="false"
     inkscape:zoom="0.51215279"
     inkscape:cx="-45.233877"
     inkscape:cy="230.39999"
     inkscape:window-x="1992"
     inkscape:window-y="27"
     inkscape:window-maximized="1"
     inkscape:current-layer="svg2" />
  <path
     style="fill:#000000;stroke-width:1.20000005"
     d="m 252.67084,494.70083 c -0.36148,-0.942 -0.45605,-2.967 -0.21017,-4.5 0.32889,-2.05052 0.60747,-1.59779 1.05393,1.71272 0.62831,4.65894 0.29588,5.75711 -0.84376,2.78728 z m 12.63765,-2.78837 c 0.57341,-4.14141 0.65706,-4.22507 1.05273,-1.05273 0.23639,1.8954 -0.0439,3.91992 -0.62292,4.49892 -0.60363,0.60363 -0.78699,-0.8665 -0.42981,-3.44619 z m -47.70337,-0.51093 c -0.14094,-3.08254 -0.8345,-4.57737 -2.30172,-4.96078 -1.155,-0.30184 0.06,-0.5488 2.7,-0.5488 2.64,0 3.88559,0.24107 2.76797,0.5357 -1.32234,0.3486 -2.19486,2.08116 -2.49827,4.9608 l -0.46625,4.4251 z m 4.87668,0.21202 c 0,-2.31 0.24696,-3.255 0.5488,-2.1 0.30182,1.155 0.30182,3.045 0,4.2 -0.30184,1.155 -0.5488,0.21 -0.5488,-2.1 z m 4.7014,0.37522 c -0.17404,-3.70235 -0.0262,-3.82266 4.6202,-3.75855 4.60368,0.0636 4.79264,0.21997 4.6202,3.82479 -0.17821,3.72528 -0.18428,3.72871 -0.68658,0.38739 -0.59551,-3.96145 -2.91849,-3.69954 -4.08091,0.46012 -0.80094,2.86615 -0.81533,2.86016 -0.93309,-0.38897 -0.0658,-1.815 -0.62375,-3.3 -1.23992,-3.3 -0.61616,0 -1.34524,1.485 -1.6202,3.3 -0.47426,3.13079 -0.50912,3.10387 -0.6797,-0.52478 z m 12.25416,1.42478 c -1.05312,-2.74439 0.4222,-5.4 3,-5.4 3.7985,0 4.14552,3.38249 0.40023,3.90127 l -3.23419,0.44797 3,1.34932 c 2.96728,1.33459 2.97013,1.35014 0.26234,1.42537 -1.50572,0.0419 -3.04849,-0.73393 -3.42838,-1.72393 z m 4.04104,-3.725 c -0.39874,-0.39875 -1.43376,-0.44138 -2.3,-0.0947 -0.95728,0.38306 -0.67294,0.66741 0.725,0.72499 1.265,0.0521 1.97375,-0.23152 1.575,-0.63027 z m 14.725,4.65033 c 0.99,-0.37686 2.19673,-1.27922 2.68163,-2.00526 0.5438,-0.81425 0.88866,-0.51539 0.9,0.77993 0.0124,1.41086 -0.86766,2.06891 -2.68163,2.00526 -1.80413,-0.0634 -2.10275,-0.32208 -0.9,-0.77993 z m -1.2,-4.52533 c 0,-1.10791 1.03813,-1.74648 2.7,-1.6608 2.05469,0.10596 2.19457,0.27104 0.58531,0.69082 -1.16309,0.30339 -1.80621,1.05075 -1.42919,1.6608 0.37704,0.61005 0.11364,1.10918 -0.5853,1.10918 -0.69895,0 -1.27082,-0.81 -1.27082,-1.8 z M 22.30487,476.78951 c -1.33373,-3.47562 -0.0125,-7.37596 2.49852,-7.37596 1.94106,0 2.4,0.8 2.4,4.18356 0,3.03304 -0.57852,4.29498 -2.10362,4.58869 -1.157,0.22282 -2.4147,-0.40551 -2.7949,-1.39629 z m 4.29852,-3.17596 c 0,-2.4 -0.6,-3.6 -1.8,-3.6 -1.2,0 -1.8,1.2 -1.8,3.6 0,2.4 0.6,3.6 1.8,3.6 1.2,0 1.8,-1.2 1.8,-3.6 z m 65.70001,4.0131 c 3.34255,-0.71806 3.58887,-4.0131 0.3,-4.0131 -1.6,0 -2.4,-0.8 -2.4,-2.4 0,-1.73014 0.7536,-2.36114 2.7,-2.2608 2.0318,0.10476 2.18029,0.27502 0.6,0.688 -2.853,0.74556 -2.6469,2.34987 0.40436,3.14779 3.55648,0.93005 2.53831,4.96796 -1.31663,5.22157 -2.64923,0.1743 -2.68182,0.13085 -0.28773,-0.38346 z m 61.2,-0.008 c 0.825,-0.33233 1.5,-2.1347 1.5,-4.0047 0,-1.87 -0.675,-3.67237 -1.5,-4.00526 -0.89609,-0.36159 -0.65453,-0.64341 0.6,-0.7 1.60873,-0.0726 2.1,0.86441 2.1,4.00526 0,2.255 0.675,4.37237 1.5,4.70526 0.825,0.3329 -0.12,0.60527 -2.1,0.60527 -1.98,0 -2.925,-0.27237 -2.1,-0.60527 z m 6.80147,-0.82931 c -1.33372,-3.47505 -0.0125,-7.37539 2.49853,-7.37539 1.94106,0 2.4,0.8 2.4,4.18356 0,3.03304 -0.57852,4.29498 -2.10363,4.58869 -1.157,0.22282 -2.4147,-0.40551 -2.7949,-1.39629 z m 4.29853,-3.17539 c 0,-2.4 -0.6,-3.6 -1.8,-3.6 -1.2,0 -1.8,1.2 -1.8,3.6 0,2.4 0.6,3.6 1.8,3.6 1.2,0 1.8,-1.2 1.8,-3.6 z m 56.1,4.00526 c 0.825,-0.33289 1.5,-2.13526 1.5,-4.00526 0,-1.87 -0.675,-3.67237 -1.5,-4.00526 -0.89609,-0.36159 -0.65453,-0.64341 0.6,-0.7 1.60873,-0.0726 2.1,0.86441 2.1,4.00526 0,2.255 0.675,4.37237 1.5,4.70526 0.825,0.3329 -0.12,0.60527 -2.1,0.60527 -1.98,0 -2.925,-0.27237 -2.1,-0.60527 z m 8.4,0.008 c 3.34255,-0.71862 3.58888,-4.01366 0.3,-4.01366 -1.6,0 -2.4,-0.8 -2.4,-2.4 0,-1.73014 0.7536,-2.36114 2.7,-2.2608 2.0318,0.10476 2.18029,0.27502 0.6,0.688 -2.853,0.74556 -2.6469,2.34987 0.40436,3.14779 3.55648,0.93005 2.53832,4.96796 -1.31662,5.22157 -2.64923,0.1743 -2.68182,0.13085 -0.28774,-0.38346 z m 61.41291,-2.37493 c 3.16112,-4.01873 3.12573,-4.94823 -0.21291,-5.59129 l -2.7,-0.52004 2.73766,-0.16342 c 3.56047,-0.21253 4.70678,2.91451 2.11731,5.77585 -1.91916,2.12064 -1.91029,2.28239 0.15446,2.8161 1.42126,0.36737 1.00105,0.61512 -1.19652,0.70543 l -3.3871,0.1392 z m 5.38856,1.53779 c -1.33372,-3.47618 -0.0125,-7.37652 2.49853,-7.37652 1.94106,0 2.4,0.8 2.4,4.18356 0,3.03304 -0.57852,4.29498 -2.10362,4.58869 -1.15701,0.22282 -2.4147,-0.40551 -2.79491,-1.39629 z m 4.29853,-3.17652 c 0,-2.4 -0.6,-3.6 -1.8,-3.6 -1.2,0 -1.8,1.2 -1.8,3.6 0,2.4 0.6,3.6 1.8,3.6 1.2,0 1.8,-1.2 1.8,-3.6 z m 58.71291,1.63817 c 3.16112,-4.01873 3.12573,-4.94824 -0.21291,-5.59129 l -2.7,-0.52005 2.73766,-0.16341 c 3.56047,-0.21254 4.70678,2.91451 2.11732,5.77585 -1.91916,2.12064 -1.9103,2.28239 0.15445,2.8161 1.42127,0.36737 1.00105,0.61512 -1.19652,0.70543 l -3.3871,0.1392 z m 6.98709,2.37493 c 3.34256,-0.71806 3.58888,-4.0131 0.3,-4.0131 -1.59999,0 -2.4,-0.8 -2.4,-2.4 0,-1.73014 0.7536,-2.36114 2.7,-2.2608 2.03181,0.10476 2.1803,0.27502 0.6,0.688 -2.853,0.74556 -2.6469,2.34987 0.40437,3.14779 3.55647,0.93005 2.53831,4.96796 -1.31663,5.22157 -2.64923,0.1743 -2.68182,0.13085 -0.28774,-0.38346 z m 60.00001,0 c 3.19776,-0.68695 3.59665,-3.60281 0.6,-4.3859 -2.00001,-0.52266 -2.00001,-0.55542 0,-0.688 2.8776,-0.19074 2.65291,-2.2481 -0.3184,-2.9154 -2.01173,-0.4518 -1.96128,-0.51628 0.3,-0.38346 2.27633,0.13369 2.7184,0.84268 2.7184,4.35966 0,3.62759 -0.40887,4.22678 -3,4.39656 -2.64365,0.17322 -2.67929,0.12767 -0.3,-0.38346 z m 5.60146,-0.83714 c -1.33371,-3.47562 -0.0125,-7.37596 2.49854,-7.37596 1.94106,0 2.4,0.8 2.4,4.18356 0,3.03304 -0.57852,4.29498 -2.10363,4.58869 -1.157,0.22282 -2.4147,-0.40551 -2.79491,-1.39629 z m 4.29854,-3.17596 c 0,-2.4 -0.6,-3.6 -1.8,-3.6 -1.2,0 -1.8,1.2 -1.8,3.6 0,2.4 0.6,3.6 1.8,3.6 1.2,0 1.8,-1.2 1.8,-3.6 z m -411.46081,-11.1 c -0.12158,-1.83413 -1.50652,-2.1 -10.93921,-2.1 H 2.6033902 v -20.31201 c 0,-18.3357 -0.20432,-20.36541 -2.10000001,-20.86079 -1.99999999,-0.52266 -1.99999999,-0.55542 0,-0.688 1.94840001,-0.12915 2.10000001,-2.64518 2.10000001,-34.85121 0,-32.05 -0.16104,-34.75409 -2.10000001,-35.26079 -1.99999999,-0.52266 -1.99999999,-0.55542 0,-0.688 1.94840001,-0.12915 2.10000001,-2.64518 2.10000001,-34.85121 0,-32.05 -0.16104,-34.75409 -2.10000001,-35.26079 -1.99999999,-0.52266 -1.99999999,-0.55542 0,-0.68799 1.94840001,-0.12916 2.10000001,-2.64519 2.10000001,-34.85122 0,-32.05 -0.16104,-34.75409 -2.10000001,-35.26079 -1.99999999,-0.52266 -1.99999999,-0.55542 0,-0.68799 1.94840001,-0.12916 2.10000001,-2.64519 2.10000001,-34.85122 0,-32.04999 -0.16104,-34.75409 -2.10000001,-35.26079 -1.99999999,-0.52266 -1.99999999,-0.55542 0,-0.68799 1.88517001,-0.12496 2.10000001,-1.73509 2.10000001,-15.7392 v -15.6 H 241.4034 480.20341 v 178.19999 178.2 h -24.51202 c -22.33571,0 -24.56074,0.18645 -25.06079,2.1 -0.52266,2 -0.55542,2 -0.68799,0 -0.12897,-1.94557 -2.55947,-2.1 -33.05122,-2.1 -30.3357,0 -32.95497,0.16439 -33.46079,2.1 -0.52266,2 -0.55542,2 -0.688,0 -0.12902,-1.94654 -2.58804,-2.1 -33.65121,-2.1 -30.90714,0 -33.55467,0.16324 -34.06079,2.1 -0.52266,2 -0.55542,2 -0.688,0 -0.12896,-1.94557 -2.55947,-2.1 -33.05122,-2.1 -30.3357,0 -32.95496,0.16439 -33.46078,2.1 -0.52266,2 -0.55542,2 -0.688,0 -0.12896,-1.94557 -2.55947,-2.1 -33.05122,-2.1 -30.3357,0 -32.95496,0.16439 -33.46079,2.1 -0.52266,2 -0.55542,2 -0.68799,0 -0.12903,-1.94654 -2.58804,-2.1 -33.65122,-2.1 -30.90714,0 -33.55466,0.16324 -34.06079,2.1 -0.52266,2 -0.55542,2 -0.68799,0 -0.12897,-1.94557 -2.55947,-2.1 -33.05122,-2.1 -30.33571,0 -32.95497,0.16439 -33.46079,2.1 -0.52266,2 -0.55542,2 -0.68799,0 z m 454.66081,-180.3 V 105.21356 H 241.4034 3.8033902 v 176.99999 177 H 241.4034 479.00341 Z m -216.14823,160.8 c -0.41153,-0.66 -1.13114,-13.08 -1.59914,-27.6 -0.57759,-17.92081 -1.371,-27.55625 -2.47024,-30 -0.89064,-1.98 -1.8634,-4.68 -2.16167,-6 -0.29829,-1.32 -0.60497,1.18723 -0.68153,5.57161 -0.13051,7.47419 -1.05023,9.42839 -4.43735,9.42839 -0.27601,0 -0.60396,-6.075 -0.72875,-13.5 -0.13528,-8.04876 -0.40417,-10.59267 -0.66589,-6.3 -0.24144,3.96 -0.94934,7.713 -1.5731,8.34 -0.62376,0.627 -1.13411,5.622 -1.13411,11.1 0,5.84001 -0.49638,9.96 -1.2,9.96 -0.70717,0 -1.20755,-4.31225 -1.21837,-10.5 -0.01,-5.775 -0.52107,-11.29487 -1.13545,-12.26636 -1.24718,-1.97211 -1.53221,-1.48299 -2.98113,5.11544 -0.40448,1.84199 -1.25958,3.02512 -1.90023,2.62918 -0.72627,-0.44886 -1.16482,4.27649 -1.16482,12.55092 0,8.04721 -0.47234,13.27082 -1.2,13.27082 -0.66,0 -1.2,-2.43 -1.2,-5.4 0,-2.97 -0.54,-5.4 -1.2,-5.4 -0.66,0 -1.23796,-1.755 -1.28435,-3.9 -0.0463,-2.145 -0.54842,-4.98 -1.11565,-6.3 -0.72899,-1.69645 -1.05604,-0.20142 -1.11565,5.1 -0.0466,4.14377 -0.62135,7.5 -1.28435,7.5 -0.73494,0 -1.25502,-6.39465 -1.34197,-16.5 -0.0878,-10.2089 -0.49126,-15.12739 -1.05803,-12.9 -0.50382,1.98 -0.97993,6.21 -1.05803,9.4 -0.17077,6.97656 -2.93423,7.27691 -3.5159,0.38211 -0.20567,-2.4378 -0.88067,-4.11919 -1.5,-3.73641 -0.61935,0.38276 -1.22175,7.54908 -1.33867,15.92513 l -0.21261,15.22917 -0.68739,-17.60105 c -0.37808,-9.68056 -1.03464,-17.94782 -1.45906,-18.37166 -0.42443,-0.42384 -1.16514,7.10038 -1.64605,16.72049 -0.48091,9.62011 -1.34866,17.78423 -1.92833,18.14249 -0.58075,0.35892 -1.05396,-5.24511 -1.05396,-12.48167 0,-8.29561 -0.59424,-14.54633 -1.61328,-16.96991 -1.55531,-3.699 -1.64154,-3.43865 -2.4,7.24658 -0.4327,6.09588 -0.78672,16.97235 -0.78672,24.1699 0,8.3297 -0.43178,12.81962 -1.18788,12.35232 -0.71713,-0.44321 -1.14774,-9.0655 -1.0866,-21.75743 0.0962,-19.98464 -0.54318,-25.90095 -2.1396,-19.79622 -0.48252,1.84517 -1.01459,2.27058 -1.61824,1.29387 -1.68888,-2.73266 -3.56743,0.18604 -3.74791,5.82312 l -0.18024,5.62917 -0.83953,-5.4 c -0.52783,-3.39511 -0.90646,2.06266 -1.01977,14.7 -0.0991,11.055 -0.6668,20.1 -1.26149,20.1 -0.5947,0 -1.27541,-9.315 -1.5127,-20.7 -0.27787,-13.33251 -0.94781,-21.55419 -1.88225,-23.1 -1.30512,-2.15898 -1.45448,-1.94809 -1.4873,2.1 -0.0201,2.475 -0.57649,4.5 -1.23649,4.5 -0.66,0 -1.2,-0.81 -1.2,-1.8 0,-0.99 -0.43197,-1.8 -0.95991,-1.8 -1.35615,0 -3.84009,12.81544 -3.84009,19.81224 0,4.33674 -0.35125,5.51651 -1.34623,4.52153 -0.74043,-0.74042 -2.02629,-1.08526 -2.85747,-0.7663 -1.13401,0.43516 -1.63089,-2.39896 -1.99056,-11.35366 -0.26363,-6.56348 -1.09753,-12.67848 -1.85311,-13.58891 -0.75559,-0.91043 -1.59326,-3.80848 -1.86149,-6.44011 -0.26823,-2.63164 -0.57847,8.88208 -0.68942,25.58604 -0.13212,19.89172 -0.61577,30.11492 -1.40172,29.62917 -0.6817,-0.42131 -1.2,-6.41246 -1.2,-13.87082 0,-7.95279 -0.47313,-13.12918 -1.2,-13.12918 -0.66,0 -1.2,-2.35463 -1.2,-5.23251 0,-8.71454 -1.41354,-16.36749 -3.02315,-16.36749 -0.82332,0 -1.95162,-1.215 -2.50733,-2.7 -0.60782,-1.62423 -1.15021,8.89435 -1.36129,26.4 -0.21719,18.01069 -0.80006,29.1 -1.52957,29.1 -0.72143,0 -1.26836,-8.72844 -1.40988,-22.5 -0.12716,-12.375 -0.42294,-19.125 -0.65726,-15 -0.23433,4.125 -0.94027,7.5 -1.56879,7.5 -0.67171,0 -1.14273,-7.2546 -1.14273,-17.6 0,-9.67999 -0.30425,-17.29576 -0.67611,-16.9239 -0.37184,0.37185 -1.04684,6.26685 -1.5,13.1 -0.72387,10.91566 -1.07883,12.3811 -2.92389,12.07129 -1.86365,-0.31291 -2.1,0.80129 -2.1,9.9 0,6.03508 -0.49363,10.25261 -1.2,10.25261 -0.66,0 -1.2,-0.91321 -1.2,-2.02935 0,-1.76958 -0.22553,-1.73118 -1.76184,0.3 -1.57355,2.08042 -1.77604,0.21343 -1.89473,-17.47065 -0.0731,-10.89 -0.40528,-19.125 -0.73817,-18.3 -0.8752,2.16898 -2.55623,1.84137 -3.07872,-0.6 -0.24719,-1.155 -0.9096,0.87 -1.47203,4.5 -0.93956,6.06402 -1.09358,6.30765 -1.89659,3 -0.4844,-1.99532 -0.93726,5.62691 -1.01595,17.1 -0.0885,12.90535 -0.59383,20.7 -1.34197,20.7 -0.75179,0 -1.27174,-8.62802 -1.39205,-23.1 -0.1056,-12.705 -0.39643,-21.21 -0.64624,-18.9 -0.75185,6.95236 -1.93028,8.24947 -2.72551,3 -0.61883,-4.08493 -0.87044,-3.23646 -1.68902,5.69553 -0.52904,5.77254 -1.38479,10.75689 -1.90168,11.07636 -0.51689,0.31945 -1.39086,-5.48354 -1.94214,-12.89554 l -1.00235,-13.47635 -0.91277,8.4 c -0.50202,4.62 -1.27449,14.33566 -1.71661,21.59035 -1.06115,17.41248 -2.61375,13.29755 -3.65856,-9.69639 -0.4322,-9.51168 -1.20885,-17.29396 -1.72591,-17.29396 -0.51707,0 -1.27697,-2.565 -1.68868,-5.7 -1.4333,-10.91402 -2.83176,-11.04102 -2.91727,-0.26491 -0.0698,8.80372 -0.41685,10.47701 -2.48121,11.96491 -1.32,0.95141 -2.43796,3.09562 -2.48435,4.76491 -0.077,2.77121 -0.174,2.82642 -1.11565,0.63509 -0.77439,-1.8021 -1.07334,-0.90524 -1.2,3.6 -0.24665,8.77318 -2.20744,12.58356 -2.31566,4.5 -0.12469,-9.3138 -2.90193,-7.76779 -3.77244,2.1 -0.62362,7.06918 -0.70795,6.64756 -0.9,-4.5 -0.11652,-6.765 -0.6785,-12.3 -1.2488,-12.3 -1.06288,0 -2.43136,7.74868 -2.73167,15.46749 -0.10488,2.69698 -0.69822,0.70849 -1.57161,-5.26749 l -1.40307,-9.6 -1.04826,7.8 c -0.90267,6.71673 -1.16466,7.30002 -1.8864,4.2 l -0.83814,-3.6 -0.14198,3.9 c -0.22439,6.16397 -2.53992,4.53609 -2.56035,-1.8 -0.0158,-4.9305 -2.04162,-11.45873 -2.51345,-8.1 -0.15453,1.10002 -0.8197,-1.66883 -2.95844,-12.31469 -1.81559,-9.03742 -2.92115,-4.15401 -3.11147,13.74387 -0.14455,13.59447 -0.42746,16.93034 -0.99827,11.77082 l -0.79653,-7.2 -0.20173,6.9 c -0.11096,3.795 -0.74174,6.9 -1.40174,6.9 -0.69416,0 -1.2,3.82361 -1.2,9.07083 0,5.74164 -0.44042,8.79861 -1.2,8.32917 -0.69951,-0.43232 -1.2,-7.18885 -1.2,-16.2 0,-9.01115 -0.50048,-15.76767 -1.2,-16.2 -0.66,-0.4079 -1.2,0.1321 -1.2,1.2 0,1.06791 -0.54,1.60791 -1.2,1.2 -0.66,-0.4079 -1.22436,-2.46477 -1.25412,-4.57082 -0.0298,-2.10605 -0.76575,-5.44918 -1.63551,-7.42918 l -1.58139,-3.6 -0.76023,6.6 c -0.41812,3.63 -0.95123,8.22 -1.18469,10.2 -0.23345,1.98 -0.50537,-0.34687 -0.60426,-5.17082 -0.23522,-11.47483 -2.54656,-10.31539 -2.67454,1.34165 -0.11004,10.02018 -0.61,9.48135 -1.70748,-1.84008 -0.7443,-7.6781 -2.09109,-9.58152 -4.4794,-6.33075 -0.48489,0.66 -1.00781,10.92 -1.16205,22.8 -0.26593,20.4838 -0.29978,20.76405 -0.65513,5.42325 -0.20609,-8.89722 -0.89817,-16.70022 -1.53795,-17.34 -0.63979,-0.63978 -1.16325,-2.97712 -1.16325,-5.19407 0,-2.21695 -0.50835,-3.71664 -1.12966,-3.33264 -0.62132,0.38399 -1.33698,-1.60914 -1.59035,-4.42919 -0.25338,-2.82004 -0.67675,7.83265 -0.94082,23.67265 l -0.48013,28.8 -0.35721,-21.3 c -0.29891,-17.82419 -0.64642,-21.3 -2.12952,-21.3 -1.44562,0 -1.77231,2.22502 -1.77231,12.07083 0,7.74163 -0.43037,11.80483 -1.2,11.32917 -0.66,-0.4079 -1.2,-3.18821 -1.2,-6.17846 0,-4.19046 -0.61896,-5.938 -2.7,-7.62295 l -2.7,-2.18612 V 278.41979 c 0,-78.50317 0.42623,-123.06451 1.19186,-124.60623 0.88876,-1.78966 1.36193,1.10945 1.86064,11.4 0.50352,10.38993 0.72793,6.46094 0.90814,-15.9 0.13165,-16.335 0.70384,-29.7 1.27152,-29.7 0.56769,0 1.30532,7.59563 1.63918,16.87918 0.3662,10.1826 1.14691,17.41906 1.96784,18.24 1.01443,1.01442 1.36082,0.99427 1.36082,-0.0792 0,-0.792 0.54,-1.44 1.2,-1.44 0.71656,0 1.28386,5.43876 1.40814,13.5 l 0.20814,13.5 0.84545,-16.8 c 0.465,-9.24 0.91133,-19.12687 0.99186,-21.97082 0.21848,-7.71581 2.53378,-4.93482 2.61557,3.14164 0.0666,6.57675 1.9105,18.62575 2.19285,14.32918 0.0759,-1.155 0.65223,-2.1 1.28073,-2.1 0.62851,0 1.33446,3.375 1.56878,7.5 l 0.42605,7.5 0.24761,-8.4 c 0.27563,-9.35119 1.16371,-13.8 2.75478,-13.8 0.58302,0 1.12268,1.215 1.19924,2.7 0.10596,2.05468 0.27105,2.19457 0.69082,0.58531 0.3034,-1.16308 1.05076,-1.80622 1.6608,-1.42918 0.62755,0.38785 1.10918,-2.18033 1.10918,-5.91449 0,-3.63 0.54,-6.93374 1.2,-7.34164 0.77466,-0.47877 1.2,4.38754 1.2,13.72918 0,8.12608 0.48956,14.47082 1.11654,14.47082 0.6141,0 1.35056,1.215 1.63659,2.7 0.28602,1.485 0.59358,-4.455 0.68346,-13.2 0.0996,-9.69106 0.63201,-15.9 1.36341,-15.9 0.71111,0 1.2,4.4 1.2,10.8 0,5.94 0.5004,10.8 1.11202,10.8 0.6116,0 1.35896,-0.945 1.66079,-2.1 0.30183,-1.155 0.67532,-0.21 0.82997,2.1 l 0.28118,4.2 0.91604,-3.6 c 0.50382,-1.98 0.97994,-2.72112 1.05803,-1.64694 0.19429,2.67283 3.6736,5.60216 3.91227,3.29387 0.0936,-0.90581 0.55702,0.51307 1.0297,3.15307 0.835,4.66353 0.86427,4.60747 1.02971,-1.97162 0.12466,-4.95677 0.67901,-6.96682 2.06844,-7.5 2.62105,-1.00579 2.65735,-0.99059 3.27466,1.37162 0.30184,1.155 0.61144,-1.815 0.688,-6.6 0.18564,-11.60256 2.33047,-11.15057 2.84722,0.6 l 0.40899,9.3 0.2415,-11.1 c 0.39115,-17.97911 2.53946,-13.1168 2.90941,6.58493 0.29545,15.73448 0.56369,17.7294 2.43208,18.08799 1.71966,0.33006 2.12959,-0.53657 2.26341,-4.78494 0.0899,-2.85339 0.39744,-3.97298 0.68346,-2.48798 1.41925,7.36854 3.91525,-0.70687 3.93991,-12.74694 0.012,-5.59378 0.25142,-6.24924 1.81322,-4.95306 1.55788,1.29293 1.80177,0.7074 1.81321,-4.35307 0.0174,-7.70329 1.24135,-14.84693 2.54379,-14.84693 0.57365,0 1.04769,6.345 1.05342,14.1 0.006,7.755 0.41074,17.07 0.9,20.7 0.87536,6.49447 0.90029,6.41773 1.55987,-4.8 0.6631,-11.27745 0.67486,-11.21296 1.09404,6 0.38857,15.95642 0.49417,16.65332 1.27285,8.4 0.46702,-4.95 0.91971,-16.45687 1.00598,-25.57082 0.22902,-24.19717 2.51121,-20.08093 2.73982,4.94164 0.19338,21.16733 0.87347,19.9627 3.25798,-5.77082 l 0.94514,-10.19998 0.34893,11.4 c 0.48995,16.0074 2.13926,21.70812 2.32299,8.02918 0.19959,-14.86015 2.48781,-12.2476 2.75163,3.14164 0.11532,6.72605 0.40261,9.79918 0.63846,6.82918 0.60122,-7.57114 1.63907,-9.79712 2.79745,-6 0.59916,1.96404 0.95651,2.27483 1.03482,0.9 0.22754,-3.99471 2.51962,-2.08435 2.51962,2.1 0,2.93333 0.54285,4.2 1.8,4.2 1.36699,0 1.85043,-1.65985 2.00965,-6.9 0.1832,-6.02974 0.26774,-6.25331 0.67033,-1.77265 0.25338,2.82004 0.96904,4.81317 1.59035,4.42918 0.63833,-0.39451 1.20655,1.81179 1.30643,5.07264 0.1116,3.64222 0.49282,1.80762 1.03364,-4.97372 0.49861,-6.25211 1.42818,-10.93498 2.22324,-11.2 0.7515,-0.2505 1.36636,-2.30045 1.36636,-4.55545 0,-2.255 0.54,-4.1 1.2,-4.1 0.68454,0 1.2,3.57143 1.2,8.31428 0,5.79048 0.54639,8.86068 1.8,10.11429 0.99,0.99 1.8,2.95044 1.8,4.35653 0,1.40609 0.54,2.2228 1.2,1.8149 0.67602,-0.41781 1.2,-6.21246 1.2,-13.27082 0,-7.55279 0.47661,-12.52918 1.2,-12.52918 0.6819,0 1.23642,3.75623 1.28435,8.7 0.12302,12.69065 2.09467,15.96145 2.35092,3.9 0.37066,-17.44638 2.10549,-16.60057 2.4613,1.2 0.28985,14.5011 0.43388,15.56845 1.05249,7.8 0.65995,-8.28756 1.47992,-9.15328 2.84148,-3 0.29208,1.32 0.5937,-0.435 0.67026,-3.9 0.19787,-8.95519 2.53085,-7.86972 2.57912,1.2 l 0.04,7.5 2.36008,-2.83294 2.36007,-2.83294 0.0184,9.43294 c 0.0108,5.84255 0.41706,8.80349 1.06584,7.77919 0.57611,-0.90955 1.64783,-1.28268 2.38163,-0.82917 0.93919,0.58045 1.33416,-2.21607 1.33416,-9.44626 0,-5.64895 0.405,-10.26255 0.9,-10.25245 2.64103,0.0539 3.80805,2.5545 4.20513,9.01044 0.41244,6.70565 0.4558,6.56285 0.66798,-2.19963 0.14257,-5.88922 0.67272,-9.09528 1.42687,-8.62918 0.73889,0.45665 1.2,-1.56393 1.2,-5.25836 0,-9.57431 2.019,-8.18471 2.87969,1.98198 1.23188,14.55141 2.73511,25.28637 2.93732,20.97638 0.13847,-2.95111 0.7315,-3.9 2.4374,-3.9 3.03144,0 4.65036,-4.57182 5.62487,-15.88458 0.43989,-5.10652 1.27701,-8.98965 1.86025,-8.62918 0.58326,0.36047 1.17152,5.88853 1.30724,12.28458 l 0.24675,11.62918 0.39996,-10.5 c 0.44157,-11.59229 2.69568,-14.57032 2.72489,-3.6 0.0257,9.621 1.88607,12.0011 2.9346,3.75428 0.45135,-3.54985 1.13147,-7.53428 1.51139,-8.85428 l 0.69076,-2.4 0.9381,2.4 c 0.51595,1.32 1.02987,5.1 1.14205,8.4 0.46058,13.54917 2.12964,11.4893 2.24511,-2.77082 0.077,-9.51286 0.54678,-14.50682 1.31962,-14.02918 0.68246,0.42178 1.20792,6.53339 1.21837,14.17082 0.0101,7.38605 0.54184,14.23918 1.18163,15.22918 0.80015,1.23813 1.16898,-1.47753 1.18163,-8.7 0.0108,-6.18775 0.5112,-10.5 1.21837,-10.5 0.66,0 1.2,2.66813 1.2,5.92918 0,7.01423 2.34132,9.65478 2.51962,2.84164 0.10608,-4.05362 0.22832,-4.23136 1.08038,-1.57082 l 0.96077,3 0.11964,-3.22918 c 0.11245,-3.03649 2.51959,-6.25683 2.51959,-3.37082 0,0.7379 0.54,1.0079 1.2,0.6 0.74503,-0.46046 1.2,1.78754 1.2,5.92918 0,3.66895 0.4725,6.67082 1.05,6.67082 1.88022,0 2.55,-7.1498 2.55,-27.22082 0,-14.04872 0.38004,-19.48595 1.32131,-18.90421 0.93294,0.57659 1.06554,6.61521 0.45113,20.54423 -0.85109,19.29446 -0.81573,19.74186 1.61077,20.3764 1.52557,0.39895 2.66893,1.87253 2.96907,3.82659 0.42028,2.73609 0.51311,2.62181 0.66792,-0.82219 0.3085,-6.86314 3.07864,-3.63138 4.53759,5.29373 l 1.35779,8.30627 0.14221,-8.62918 c 0.15491,-9.39988 2.43323,-13.56105 2.70563,-4.94164 0.0899,2.84395 0.39744,3.95582 0.68346,2.47082 0.28603,-1.485 0.94323,-2.7 1.46047,-2.7 0.51725,0 1.31882,-6.32915 1.7813,-14.06476 0.46248,-7.73562 1.08173,-14.30562 1.37611,-14.6 1.45113,-1.45113 2.26084,2.19333 2.97567,13.39337 0.43077,6.74926 0.8679,10.00826 0.9714,7.24221 0.26982,-7.21145 2.57209,-7.85399 2.65733,-0.74164 0.038,3.17395 0.51594,7.93082 1.062,10.57082 0.78301,3.78554 1.02201,2.1126 1.13084,-7.91565 0.19394,-17.87047 1.5114,-34.68435 2.71769,-34.68435 0.56117,0 1.06034,10.665 1.10926,23.7 0.049,13.035 0.52134,26.13 1.0498,29.1 0.94026,5.28427 0.96407,5.22641 1.11105,-2.7 0.0834,-4.49987 0.68355,-8.1 1.3502,-8.1 0.7579,0 1.2,-8.4 1.2,-22.8 0,-14.4 0.44211,-22.8 1.2,-22.8 0.75508,0 1.2,7.92355 1.2,21.37064 0,16.93269 0.36587,21.85437 1.76184,23.7 1.64949,2.18082 1.76427,2.03789 1.8,-2.24146 0.0228,-2.73354 0.52051,-4.27271 1.23816,-3.82918 0.66,0.4079 1.29,5.43477 1.39999,11.17082 0.12806,6.67753 0.66764,1.43331 1.5,-14.57838 1.32264,-25.44284 3.10001,-32.31863 3.10001,-11.99244 0,6.66666 0.48571,11.2 1.2,11.2 0.66,0 1.2,-2.97 1.2,-6.6 0,-10.65474 1.98264,-7.56935 2.89167,4.5 0.4598,6.105 1.34727,11.613 1.97217,12.24 0.62489,0.627 1.13616,3.22387 1.13616,5.77082 0,2.54695 0.46787,4.34166 1.03971,3.98825 0.57183,-0.35342 1.2944,-7.69585 1.60568,-16.31651 0.7719,-21.37658 2.83915,-22.83243 3.96913,-2.79523 0.47805,8.47697 1.21035,15.95267 1.62733,16.61267 0.41698,0.66 1.02815,-7.39601 1.35815,-17.90224 0.43265,-13.77441 1.01837,-19.24106 2.1,-19.6 1.05232,-0.3492 1.5,1.1226 1.5,4.93142 0,2.98605 0.54,5.76291 1.2,6.17082 0.66,0.4079 1.2,2.5556 1.2,4.77267 0,2.21707 0.36443,4.98072 0.80985,6.14145 0.7515,1.95837 0.87508,1.94383 1.71565,-0.20186 0.75763,-1.934 0.91962,-1.77241 0.99015,0.98774 0.0464,1.815 0.62435,3.3 1.28435,3.3 0.69334,0 1.2,-3.8 1.2,-9 0,-4.95 0.50579,-9 1.12397,-9 0.61818,0 1.34177,-1.755 1.60795,-3.9 0.2662,-2.145 0.68249,4.2 0.92509,14.1 0.36106,14.73389 0.51294,15.98589 0.83708,6.9 0.31248,-8.75958 0.766,-11.1 2.15095,-11.1 1.31075,0 1.81115,1.74654 1.97694,6.9 l 0.22197,6.9 0.44014,-6.28254 c 0.24206,-3.4554 1.21885,-7.7754 2.17062,-9.6 l 1.73051,-3.31746 0.014,4.8 c 0.007,2.64 0.66529,6.96 1.4612,9.6 1.35692,4.50076 1.47368,4.59427 1.87302,1.5 0.23424,-1.815 0.86704,-3.3 1.40622,-3.3 1.55372,0 2.4194,4.72521 2.52821,13.8 0.0697,5.8178 0.41776,7.66223 1.13205,6 0.56722,-1.32 1.06927,-11.445 1.11565,-22.5 0.0527,-12.54377 0.53551,-20.1 1.28439,-20.1 0.66,0 1.2,2.97 1.2,6.6 0,3.63 0.54,6.6 1.2,6.6 0.66,0 1.20827,2.565 1.21838,5.7 0.0266,8.28231 1.83466,10.38769 3.52611,4.10616 1.70993,-6.35017 3.65551,-6.4599 3.65551,-0.20616 0,3.46666 0.50001,4.8 1.8,4.8 0.99,0 1.8,0.648 1.8,1.44 0,0.91318 0.4186,1.0214 1.1442,0.2958 0.62931,-0.62931 1.30904,-5.46231 1.5105,-10.74 l 0.36629,-9.5958 1.03451,7.41165 1.03451,7.41166 2.555,-2.38842 2.55499,-2.38842 0.6,10.57676 c 0.57143,10.07314 0.64286,10.29738 1.5,4.70928 0.495,-3.22711 0.90333,-12.40711 0.9074,-20.4 0.007,-13.62739 0.11904,-14.31844 1.8,-11.09534 1.21867,2.33669 1.7926,7.04316 1.7926,14.7 0,11.92384 1.74159,15.15028 3.00274,5.56283 1.08226,-8.22746 1.50029,-9.7402 1.65806,-6 0.0766,1.815 0.66152,3.3 1.2999,3.3 0.65614,0 1.32711,5.86857 1.54349,13.5 l 0.3828,13.5 0.2565,-15.9 c 0.2347,-14.54787 1.22229,-18.96841 3.12813,-14.00186 0.40062,1.04398 0.79227,4.95898 0.87036,8.7 0.11748,5.63095 0.29967,6.18213 1.05802,3.20186 0.50382,-1.98 0.97994,-12.915 1.05803,-24.3 0.0885,-12.90535 0.59383,-20.7 1.34197,-20.7 0.7504,0 1.28708,8.65493 1.43241,23.1 0.19639,19.52091 0.34631,21.24073 0.9676,11.1 0.45178,-7.37411 0.82478,-9.57141 0.96759,-5.7 0.21791,5.90694 1.66703,8.19679 3.03767,4.8 0.33289,-0.825 0.73867,3.36 0.90173,9.3 0.28004,10.20173 0.33515,10.40633 0.99474,3.69342 0.91442,-9.30652 3.69827,-10.6565 3.69827,-1.79342 0,10.172 1.55965,5.66908 2.42941,-7.01402 l 0.80138,-11.68598 0.1846,12.9 c 0.10152,7.095 0.66163,12.9 1.24465,12.9 1.39492,0 2.50318,-4.3166 2.52358,-9.82918 0.0311,-8.41294 2.30228,-6.00281 2.72461,2.89132 0.31071,6.54385 0.51427,4.97147 0.81067,-6.26214 0.34891,-13.22401 0.50262,-14.16247 1.2982,-7.92618 0.58,4.5465 1.59562,7.46175 2.84266,8.15962 1.45808,0.81599 1.94481,2.93477 1.95861,8.52619 0.01,4.0922 0.54183,8.25037 1.18163,9.24037 0.78712,1.21799 1.22746,-3.43807 1.36185,-14.4 0.13662,-11.14387 0.46063,-14.51462 1.03815,-10.8 l 0.83953,5.4 0.38988,-7.2 c 0.36096,-6.66589 0.42096,-6.79942 0.80876,-1.8 0.23039,2.97 0.93321,6.48 1.56183,7.8 0.62862,1.32 1.33143,4.83 1.56182,7.8 0.38962,5.02275 0.43352,4.92693 0.62852,-1.37162 0.19263,-6.2215 1.29207,-8.22838 4.5078,-8.22838 0.27602,0 0.50186,3.19583 0.50186,7.10185 0,3.90602 0.32658,7.95292 0.72573,8.99311 1.44546,3.7668 2.87427,0.40353 2.87427,-6.76578 0,-9.5974 1.45801,-7.90716 3.149,3.65056 1.1557,7.89911 1.37063,8.43452 1.5,3.73667 0.11676,-4.23978 0.83148,-6.07528 3.151,-8.09207 l 3,-2.60847 0.11964,3.89206 c 0.0658,2.14064 0.51122,5.24207 0.98985,6.89207 0.69904,2.40979 1.05322,1.58352 1.8003,-4.2 1.27135,-9.84212 2.35571,-10.86041 3.19463,-3 l 0.70441,6.6 0.19559,-8.77082 c 0.12256,-5.49667 0.64354,-8.49397 1.39558,-8.02918 0.66,0.4079 1.2,-0.37023 1.2,-1.72918 0,-1.35895 0.54,-2.47082 1.2,-2.47082 0.66667,0 1.2,3.2 1.2,7.2 0,4 0.53333,7.2 1.2,7.2 0.72423,0 1.2,-5.02361 1.2,-12.67082 0,-8.14164 0.42894,-12.40572 1.2,-11.92918 1.36514,0.84371 1.71201,200.87985 0.41063,236.80762 -0.79449,21.93359 -2.34182,28.72248 -3.12077,13.69237 l -0.4198,-8.1 -0.2534,8.4 c -0.17898,5.93261 -0.59511,7.87127 -1.41666,6.6 -0.84246,-1.30361 -1.16832,-0.24764 -1.18163,3.82918 -0.01,3.09605 -0.55837,5.96292 -1.21837,6.37082 -0.76137,0.47056 -1.2,-2.72785 -1.2,-8.75011 0,-5.22047 -0.64543,-11.32733 -1.4343,-13.57082 -1.41527,-4.02496 -1.44552,-4.03928 -2.28039,-1.07907 -0.46535,1.65 -0.89991,11.53687 -0.9657,21.97083 -0.0776,12.31248 -0.54079,18.71052 -1.31961,18.22917 -0.72099,-0.44559 -1.2,-8.58885 -1.2,-20.4 0,-11.81114 -0.47902,-19.9544 -1.2,-20.4 -0.66,-0.4079 -1.29078,-2.46477 -1.40174,-4.57082 -0.11232,-2.13303 -0.55455,-0.63991 -0.99826,3.37082 l -0.79654,7.2 -0.20173,-6.37889 c -0.20146,-6.37022 -1.76983,-11.02111 -3.71656,-11.02111 -0.56671,0 -1.41504,4.86 -1.88517,10.8 -0.8818,11.14131 -2.49899,14.20467 -3.32584,6.3 l -0.47071,-4.5 -0.20173,4.5 c -0.11088,2.475 -0.54339,4.5 -0.96096,4.5 -1.30884,0 -5.24076,-5.08945 -5.24076,-6.78361 0,-0.88901 -0.50172,-1.61639 -1.11492,-1.61639 -0.61322,0 -1.82508,-3.105 -2.69306,-6.9 l -1.57813,-6.9 -0.28773,6 c -0.78125,16.29109 -1.84715,25.74325 -2.83422,25.13322 -0.60057,-0.37117 -1.09194,-5.23299 -1.09194,-10.80404 0,-5.95278 -0.49478,-10.12918 -1.2,-10.12918 -0.73655,0 -1.2,5.8428 -1.2,15.12839 0,13.3021 -0.22914,15.04045 -1.89815,14.4 -1.04398,-0.40062 -2.12398,-0.72839 -2.4,-0.72839 -0.27601,0 -0.60396,-4.185 -0.72875,-9.3 -0.2147,-8.80007 -0.2505,-8.91295 -0.66589,-2.1 -0.79932,13.10992 -2.69911,10.26858 -2.84836,-4.26 -0.12492,-12.16079 -0.26821,-13.05038 -1.24676,-7.74 -0.6081,3.3 -1.55127,9.78 -2.09593,14.4 l -0.99029,8.4 -0.16294,-12.3 c -0.0966,-7.29138 -0.65159,-12.3 -1.36293,-12.3 -0.7357,0 -1.2,5.77639 -1.2,14.92918 0,8.65836 -0.50405,15.24069 -1.2,15.67082 -0.77098,0.47649 -1.2,-3.77498 -1.2,-11.89152 0,-10.73646 -0.27024,-12.52945 -1.8,-11.94243 -1.18388,0.45429 -1.84095,-0.072 -1.91962,-1.53766 -0.0886,-1.65046 -0.3688,-1.45033 -1.08038,0.77161 -0.76131,2.37719 -0.9856,1.71875 -1.08039,-3.17161 -0.0784,-4.0452 -0.68902,-6.39011 -1.77221,-6.80578 -1.29222,-0.49587 -1.83546,1.70351 -2.49121,10.08606 -0.82184,10.5056 -3.0562,13.97747 -3.0562,4.7489 0,-2.9826 -0.63309,-4.84373 -1.8,-5.29152 -0.99,-0.3799 -1.8,-1.51767 -1.8,-2.52839 0,-1.01071 -0.51532,-1.83766 -1.14517,-1.83766 -0.62984,0 -1.33407,-3.645 -1.56497,-8.1 -0.29114,-5.61769 -0.49182,-3.96282 -0.65482,5.4 -0.14003,8.04331 -0.72008,13.5 -1.43504,13.5 -0.66,0 -1.2,1.11187 -1.2,2.47083 0,1.35895 -0.54,2.13708 -1.2,1.72917 -0.66,-0.4079 -1.29078,-4.35477 -1.40172,-8.77082 -0.12948,-5.15367 -0.3724,-6.38236 -0.6783,-3.43084 -0.35125,3.38907 -0.92935,4.42459 -2.19828,3.93766 -1.21414,-0.4659 -1.77483,0.30107 -1.90192,2.60166 -0.11772,2.12989 -0.47166,1.38785 -1.01978,-2.13766 -0.83115,-5.34611 -0.84133,-5.32514 -1.01977,2.1 -0.24404,10.15567 -2.58023,9.66676 -2.58023,-0.54 0,-6.10698 -0.33523,-7.70477 -1.39431,-6.64568 -0.85096,0.85095 -1.6141,7.4808 -1.95829,17.01299 -0.62806,17.3929 -2.5812,20.14806 -2.76608,3.90187 -0.0653,-5.73605 -0.52923,-13.39918 -1.03104,-17.02918 l -0.91236,-6.6 -0.16896,8.1 c -0.13192,6.32491 -0.56342,8.1 -1.96896,8.1 -0.99,0 -1.8,-0.56963 -1.8,-1.26583 0,-0.69622 -1.215,-3.80122 -2.7,-6.9 l -2.7,-5.63417 -0.369,5.1 c -0.20294,2.805 -0.87794,5.1 -1.5,5.1 -0.62204,0 -1.22178,-2.295 -1.33272,-5.1 l -0.20173,-5.1 -0.47846,4.8 c -0.94581,9.48829 -2.71565,7.24029 -2.8815,-3.66 -0.0899,-5.907 -0.37606,-9.39 -0.63595,-7.74 -0.9791,6.21615 -1.67762,8.4 -2.68677,8.4 -1.85898,0 -4.90955,-8.02982 -5.08364,-13.38135 -0.13071,-4.01787 -0.43976,-3.07876 -1.3431,4.08135 -1.18976,9.43023 -3.28713,12.72951 -3.28713,5.17083 0,-2.27105 -0.54,-4.46292 -1.2,-4.87083 -0.76208,-0.47099 -1.2,2.78754 -1.2,8.92918 0,5.31895 -0.50413,9.67082 -1.12029,9.67082 -0.61617,0 -1.34525,1.485 -1.62021,3.3 -0.45893,3.02953 -0.51464,2.97589 -0.6797,-0.65454 -0.111,-2.44152 -1.32762,-5.10237 -3.1798,-6.95455 -2.44253,-2.44253 -3.03037,-4.27205 -3.16341,-9.84545 -0.0899,-3.765 -0.39744,-5.63046 -0.68346,-4.14546 -0.61451,3.19042 -2.68316,3.61644 -2.91346,0.6 -0.33371,-4.37065 -2.04234,10.32954 -2.33627,20.1 -0.16877,5.61 -0.51857,8.17661 -0.77735,5.70357 -0.44574,-4.25978 -3.761,-7.86861 -5.56827,-6.06135 -0.41677,0.41679 -0.75778,4.44778 -0.75778,8.95779 0,4.66666 -0.51707,8.19999 -1.2,8.19999 -0.7314,0 -1.26381,-6.20894 -1.36341,-15.9 -0.0899,-8.745 -0.39744,-14.685 -0.68346,-13.2 -0.51784,2.68855 -2.75313,3.84892 -2.75313,1.42918 0,-0.69895 -0.54,-0.93708 -1.2,-0.52918 -0.66,0.40791 -1.2,4.25164 -1.2,8.54164 0,4.89443 -0.44701,7.52373 -1.2,7.05836 -0.69644,-0.43043 -1.2,-7.03607 -1.2,-15.74163 0,-9.69443 -0.42444,-14.73768 -1.2,-14.25837 -0.66,0.40791 -1.2,5.29978 -1.2,10.87083 0,11.09302 -2.00895,13.92609 -2.71531,3.82917 -0.2424,-3.465 -0.54062,-0.495 -0.66271,6.6 -0.32001,18.59665 -2.58531,16.63548 -2.77218,-2.4 -0.11496,-11.71161 -0.37555,-14.03351 -1.11105,-9.9 -0.52846,2.97 -1.00088,14.175 -1.0498,24.9 -0.0554,12.1407 -0.54183,19.5 -1.28895,19.5 -0.72765,0 -1.2,-5.22361 -1.2,-13.27082 0,-8.54164 -0.42763,-13.00653 -1.2,-12.52918 -0.76627,0.47358 -1.2,-3.18753 -1.2,-10.12917 0,-6.44722 -0.4883,-10.87083 -1.2,-10.87083 -0.66,0 -1.32271,-2.025 -1.47267,-4.5 -0.14998,-2.475 -0.55498,11.43 -0.9,30.9 -0.34504,19.47 -0.96404,34.86 -1.37555,34.2 z M -26.49661,422.41882 c 0.825,-0.3329 1.5,-2.13527 1.5,-4.00527 0,-1.86999 -0.675,-3.67237 -1.5,-4.00526 -0.94623,-0.38182 -0.77125,-0.64024 0.47396,-0.7 1.44787,-0.0695 2.09596,1.18453 2.43171,4.70526 0.40001,4.19443 0.15097,4.78805 -1.97396,4.70526 -1.33744,-0.0521 -1.75671,-0.3671 -0.93171,-0.69999 z m 11.60148,-0.82931 c -1.33373,-3.47562 -0.0125,-7.37596 2.49852,-7.37596 1.94106,0 2.4000002,0.80001 2.4000002,4.18356 0,3.03304 -0.5785202,4.29498 -2.1036302,4.58869 -1.15699,0.22282 -2.4147,-0.40551 -2.79489,-1.39629 z m 4.29852,-3.17596 c 0,-2.4 -0.6,-3.6 -1.8,-3.6 -1.2,0 -1.8,1.2 -1.8,3.6 0,2.4 0.6,3.6 1.8,3.6 1.2,0 1.8,-1.2 1.8,-3.6 z m -25.48601,0.35129 c 1.4927,-0.28703 3.6527,-0.27613 4.8,0.0242 1.14731,0.30035 -0.074,0.5352 -2.71399,0.52188 -2.64,-0.0133 -3.5787,-0.25907 -2.08601,-0.5461 z m 8.08601,-68.75129 c -1.49381,-4.7066 2.43808,-9.82167 4.71627,-6.13548 0.36185,0.58548 -0.28128,0.99048 -1.42918,0.9 -1.4701,-0.11588 -2.08709,0.72236 -2.08709,2.83548 0,2.11313 0.61699,2.95137 2.08709,2.83548 1.1479,-0.0905 1.79103,0.31452 1.42918,0.9 -1.1771,1.9046 -3.93585,1.12341 -4.71627,-1.33548 z m 14.7,1.6131 c 3.3425602,-0.71805 3.5888802,-4.0131 0.3,-4.0131 -1.6,0 -2.4,-0.8 -2.4,-2.4 0,-1.73013 0.7536,-2.36114 2.7,-2.2608 2.03181,0.10476 2.1803,0.27502 0.6,0.688 -2.85299,0.74556 -2.6469,2.34988 0.40437,3.14779 3.5564802,0.93005 2.5383102,4.96797 -1.31663,5.22157 -2.64922,0.1743 -2.68183,0.13085 -0.28774,-0.38346 z m -22.78601,-3.66181 c 1.4927,-0.28703 3.6527,-0.27613 4.8,0.0242 1.14731,0.30035 -0.074,0.5352 -2.71399,0.52188 -2.64,-0.0133 -3.5787,-0.25907 -2.08601,-0.54609 z m -19.66484,-47.7117 c -0.37155,-0.96823 -0.39723,-2.45323 -0.0571,-3.3 0.34015,-0.84677 0.66109,-0.32459 0.71319,1.16041 0.11855,3.37851 2.07156,3.52374 3.1164,0.23176 1.03542,-3.26232 4.73069,-2.51482 4.938,0.99889 0.13377,2.26725 0.0716,2.31391 -0.38346,0.28775 -0.69806,-3.10828 -2.81767,-3.11902 -3.6285,-0.0184 -0.73079,2.79455 -3.71571,3.20087 -4.69856,0.63959 z m 1.57981,-7.40353 c 0.49703,-1.29522 0.99741,-1.55694 1.29127,-0.67538 0.58568,1.75704 4.64544,1.91184 5.48977,0.20932 0.3355,-0.6765 0.47392,-0.5415 0.30759,0.3 -0.16633,0.8415 -2.0119,1.69893 -4.10126,1.90539 -3.20654,0.31685 -3.67233,0.0456 -2.98737,-1.73933 z m 0.38942,-6.13606 c 0.0118,-1.34895 0.33368,-1.60681 0.9,-0.72098 0.48489,0.75847 2.23162,1.62992 3.88162,1.93658 2.54007,0.47208 2.40209,0.58262 -0.9,0.72099 -2.98273,0.12498 -3.89568,-0.33051 -3.88162,-1.93659 z m 2.66767,-5.33574 c -0.66029,-2.52496 -0.73078,-2.53757 -1.67747,-0.3 -0.9616,2.27286 -0.98013,2.27114 -0.68813,-0.0643 0.19605,-1.56802 1.3482,-2.52272 3.32361,-2.75402 2.48092,-0.29048 3.0689,0.19408 3.2763,2.7 0.32041,3.8715 -3.23931,4.22315 -4.23431,0.41828 z m 3.31395,0.30657 c 0,-0.62105 -0.54,-1.46292 -1.2,-1.87083 -0.66,-0.4079 -1.2,0.1002 -1.2,1.12918 0,1.02895 0.54,1.87082 1.2,1.87082 0.66,0 1.2,-0.50812 1.2,-1.12917 z m 22.10148,-1.69487 c -1.33373,-3.47562 -0.0125,-7.37595 2.49852,-7.37595 1.94106,0 2.4,0.8 2.4,4.18356 0,3.03303 -0.57852,4.29497 -2.10363,4.58869 -1.15699,0.22281 -2.4147,-0.40552 -2.79489,-1.3963 z m 4.29852,-3.17595 c 0,-2.4 -0.6,-3.6 -1.8,-3.6 -1.2,0 -1.8,1.2 -1.8,3.6 0,2.39999 0.6,3.59999 1.8,3.59999 1.2,0 1.8,-1.2 1.8,-3.59999 z m 7.2,2.39999 c -1.51129,-2.82387 0.2886,-7.19999 2.96136,-7.19999 0.9223,0 2.0196902,1.08 2.4386402,2.4 1.01232,3.18952 -0.34603,7.19999 -2.4386402,7.19999 -0.9223,0 -2.25491,-1.08 -2.96136,-2.4 z m 4.2000002,-2.39999 c 0,-1.54 -0.6084602,-3.00282 -1.3521502,-3.25072 -1.70286,-0.56762 -3.00333,2.64924 -2.06234,5.10143 1.0369,2.70211 3.4144902,1.4134 3.4144902,-1.85071 z m -42.3000002,-2.0272 c 1.155,-0.30182 3.045,-0.30182 4.2,0 1.155,0.30184 0.21,0.5488 -2.1,0.5488 -2.31,0 -3.255,-0.24696 -2.1,-0.5488 z m -1.03615,-5.4728 c 0.10473,-2.07687 0.90119,-2.73374 3.451,-2.84618 3.17858,-0.14017 3.18798,-0.12428 0.22885,0.38657 -3.71501,0.64134 -3.2908,2.97901 0.74527,4.10689 2.67264,0.74687 2.60507,0.82328 -0.82512,0.9331 -3.14736,0.1008 -3.7147,-0.30589 -3.6,-2.58038 z m 27.63763,-60.12405 c -1.33373,-3.47562 -0.0125,-7.37595 2.49852,-7.37595 1.94106,0 2.4,0.8 2.4,4.18356 0,3.03303 -0.57852,4.29498 -2.10363,4.58869 -1.15699,0.22281 -2.4147,-0.40552 -2.79489,-1.3963 z m 4.29852,-3.17595 c 0,-2.4 -0.6,-3.6 -1.8,-3.6 -1.2,0 -1.8,1.2 -1.8,3.6 0,2.4 0.6,3.6 1.8,3.6 1.2,0 1.8,-1.2 1.8,-3.6 z m 9.3771,3.53408 c 2.8812702,-1.15556 2.5798102,-3.53408 -0.44792,-3.53408 -0.95105,0 -1.72918,-1.08 -1.72918,-2.4 0,-1.73014 0.7536,-2.36115 2.7,-2.2608 2.0318102,0.10476 2.1803002,0.27501 0.6,0.68799 -2.76928,0.72369 -2.65173,1.85093 0.39122,3.75129 2.0014502,1.24992 2.2084802,1.89646 1.0530702,3.28866 -0.7909902,0.95307 -2.3170302,1.69863 -3.3912202,1.65679 -1.28561,-0.05 -1.004,-0.4567 0.82403,-1.18985 z m -13.2771,-70.32882 c 0.825,-0.33289 1.5,-2.13526 1.5,-4.00526 0,-1.87 -0.675,-3.67237 -1.5,-4.00527 -0.89609,-0.36158 -0.65452,-0.6434 0.6,-0.7 1.60873,-0.0726 2.1,0.86442 2.1,4.00527 0,2.255 0.675,4.37237 1.5,4.70526 0.825,0.3329 -0.12,0.60526 -2.1,0.60526 -1.98,0 -2.925,-0.27236 -2.1,-0.60526 z m 11.1,-1.60526 c -1.51129,-2.82388 0.2886,-7.2 2.96136,-7.2 0.9223,0 2.0196902,1.08 2.4386402,2.4 1.01232,3.18953 -0.34603,7.2 -2.4386402,7.2 -0.9223,0 -2.25491,-1.08 -2.96136,-2.4 z m 4.2000002,-2.4 c 0,-1.54 -0.6084602,-3.00282 -1.3521502,-3.25072 -1.70286,-0.56762 -3.00333,2.64924 -2.06234,5.10143 1.0369,2.70211 3.4144902,1.41341 3.4144902,-1.85071 z m 14.7,-35.594742 c 0.825,-0.33289 1.5,-2.13526 1.5,-4.00526 0,-1.87 -0.675,-3.67237 -1.5,-4.00526 -0.89609,-0.36158 -0.65452,-0.64341 0.6,-0.70001 1.60873,-0.0726 2.1,0.86442 2.1,4.00527 0,2.255 0.675,4.37237 1.5,4.70526 0.825,0.3329 -0.12,0.605262 -2.1,0.605262 -1.98,0 -2.925,-0.272362 -2.1,-0.605262 z m 6.7339598,-1.00526 c -1.04414,-2.72098 0.50328,-5.62693 2.76298,-5.18869 3.01319,0.58437 3.42951,3.38869 0.50306,3.38869 -3.35044,0 -3.19799,2.09864 0.2,2.75312 l 2.7,0.520042 -2.73766,0.16342 c -1.50571,0.0899 -3.04848,-0.646582 -3.42838,-1.636582 z m 4.04104,-3.725 c -0.39875,-0.39875 -1.43375,-0.44138 -2.3,-0.0947 -0.95728,0.38307 -0.67293,0.66742 0.725,0.725 1.265,0.0521 1.97375,-0.23152 1.575,-0.63027 z m 16.91583,2.74766 c 3.1558,-3.3592 3.31736,-5.26161 0.50917,-5.99547 -1.9681,-0.51432 -1.96574,-0.55753 0.0377,-0.68799 3.04316,-0.19817 3.91827,3.14703 1.51731,5.80006 -1.91916,2.12064 -1.91029,2.2824 0.15446,2.81611 1.37314,0.35493 0.88109,0.618172 -1.31861,0.705432 l -3.50918,0.1392 z m 8.30917,1.9826 c 0.825,-0.33289 1.5,-2.13526 1.5,-4.00526 0,-1.87 -0.675,-3.67237 -1.5,-4.00526 -0.94623,-0.38182 -0.77125,-0.64024 0.47396,-0.70001 1.44787,-0.0695 2.09596,1.18454 2.43171,4.70527 0.40001,4.19443 0.15097,4.788052 -1.97396,4.705262 -1.33744,-0.0521 -1.75671,-0.367102 -0.93171,-0.700002 z m -19.186,-3.65397 c 1.49269,-0.28704 3.65269,-0.27614 4.79999,0.0242 1.14731,0.30035 -0.074,0.53519 -2.71399,0.52187 -2.64,-0.0133 -3.5787,-0.25906 -2.086,-0.54609 z"
     id="path12"
     inkscape:connector-curvature="0" />
</svg>
