<?xml version="1.0" encoding="UTF-8" standalone="no"?>
<svg
   xmlns:dc="http://purl.org/dc/elements/1.1/"
   xmlns:cc="http://creativecommons.org/ns#"
   xmlns:rdf="http://www.w3.org/1999/02/22-rdf-syntax-ns#"
   xmlns:svg="http://www.w3.org/2000/svg"
   xmlns="http://www.w3.org/2000/svg"
   xmlns:sodipodi="http://sodipodi.sourceforge.net/DTD/sodipodi-0.dtd"
   xmlns:inkscape="http://www.inkscape.org/namespaces/inkscape"
   sodipodi:docname="inria-bottom.svg"
   inkscape:version="1.0 (1.0+r73+1)"
   xml:space="preserve"
   enable-background="new 0 0 595.28 841.89"
   viewBox="0 0 190.99999 125"
   height="125"
   width="191"
   y="0px"
   x="0px"
   id="Calque_1"
   version="1.1"><metadata
   id="metadata92"><rdf:RDF><cc:Work
       rdf:about=""><dc:format>image/svg+xml</dc:format><dc:type
         rdf:resource="http://purl.org/dc/dcmitype/StillImage" /><dc:title /></cc:Work></rdf:RDF></metadata><defs
   id="defs90"><inkscape:perspective
     id="perspective94"
     inkscape:persp3d-origin="297.64001 : 280.63 : 1"
     inkscape:vp_z="595.28003 : 420.94501 : 1"
     inkscape:vp_y="0 : 1000 : 0"
     inkscape:vp_x="0 : 420.94501 : 1"
     sodipodi:type="inkscape:persp3d" /><inkscape:perspective
     sodipodi:type="inkscape:persp3d"
     inkscape:vp_x="0 : 0.5 : 1"
     inkscape:vp_y="0 : 1000 : 0"
     inkscape:vp_z="1 : 0.5 : 1"
     inkscape:persp3d-origin="0.5 : 0.33333333 : 1"
     id="perspective3775" /><filter
     color-interpolation-filters="sRGB"
     id="filter3763"
     inkscape:collect="always"><feGaussianBlur
       id="feGaussianBlur3765"
       stdDeviation="5.0819113"
       inkscape:collect="always" /></filter></defs><sodipodi:namedview
   inkscape:document-rotation="0"
   inkscape:current-layer="g3"
   inkscape:window-maximized="1"
   inkscape:window-y="27"
   inkscape:window-x="67"
   inkscape:cy="41.532588"
   inkscape:cx="32.434583"
   inkscape:zoom="2"
   showgrid="false"
   id="namedview88"
   inkscape:window-height="2105"
   inkscape:window-width="3773"
   inkscape:pageshadow="2"
   inkscape:pageopacity="0"
   guidetolerance="10"
   gridtolerance="10"
   objecttolerance="10"
   borderopacity="1"
   bordercolor="#666666"
   pagecolor="#ffffff" />
<g
   transform="translate(-197.15671,-383.86532)"
   id="g3">
	<rect
   style="opacity:0.3;fill:#000000;fill-opacity:1;stroke:none;filter:url(#filter3763)"
   id="rect3761"
   width="168.5"
   height="144.233"
   x="208.38971"
   y="394.86533"
   rx="11.233"
   ry="11.233" /><rect
   ry="11.233"
   rx="11.233"
   y="394.86533"
   x="208.38971"
   height="144.233"
   width="168.5"
   id="rect2902"
   style="fill:#ffffff;fill-opacity:1;stroke:none" />
	
<g
   id="g4226"
   transform="matrix(0.08213417,0,0,0.08213417,214.32204,415.85378)"><path
     style="fill:#068d52"
     d="m 455,764.33389 c -23.58743,-3.71496 -41.48244,-12.29065 -57.55253,-27.58046 -14.64868,-13.93742 -23.25548,-27.98336 -29.01606,-47.35304 -3.76705,-12.66651 -4.5169,-34.64492 -1.6513,-48.40039 8.88855,-42.66698 42.74067,-75.05677 85.21989,-81.53862 33.6472,-5.13418 66.25915,5.62673 89.92706,29.67307 21.32134,21.66225 31.65886,50.95492 28.99888,82.17199 -1.12618,13.21664 -3.94932,23.05375 -10.38716,36.19356 -17.46909,35.65494 -53.73797,57.92562 -93.41977,57.36382 C 461.82855,764.78892 456.375,764.55045 455,764.33389 Z m -371.1875,-5.017 c 0.721875,-0.28887 1.584375,-0.25335 1.916667,0.0789 0.332291,0.33229 -0.258334,0.56864 -1.3125,0.52522 -1.164943,-0.048 -1.4019,-0.28494 -0.604167,-0.60416 z M 965.49568,572 965.5,402.5 l 33.75028,-0.0202 33.75032,-0.0203 -33.49744,0.28355 -33.4974,0.28356 -0.2572,169.2367 -0.2572,169.2367 0.004,-169.5 z m 364.98472,73.5 c 10e-5,-53.35 0.1213,-75.02832 0.2694,-48.17403 0.1481,26.85428 0.1481,70.50428 -10e-5,97 -0.1481,26.49571 -0.2693,4.52403 -0.2693,-48.82597 z m 67.9672,64 c -4e-4,-18.15 0.1347,-25.71608 0.3003,-16.81351 0.1656,8.90257 0.1659,23.75257 7e-4,33 -0.1652,9.24743 -0.3007,1.96351 -0.301,-16.18649 z m 205,0 c -4e-4,-18.15 0.1347,-25.71608 0.3003,-16.81351 0.1656,8.90257 0.1659,23.75257 7e-4,33 -0.1652,9.24743 -0.3007,1.96351 -0.301,-16.18649 z M 1671.4957,572 V 402.5 l 33.7503,-0.0202 33.7503,-0.0203 -33.4974,0.28355 -33.4974,0.28356 -0.2572,169.2367 -0.2572,169.2367 v -169.5 z M 1.1578947,695 c 0,-1.375 0.2269737,-1.9375 0.504386,-1.25 0.2774123,0.6875 0.2774123,1.8125 0,2.5 -0.2774123,0.6875 -0.504386,0.125 -0.504386,-1.25 z M 149.232,681 c 0,-1.925 0.2058,-2.7125 0.45733,-1.75 0.25152,0.9625 0.25152,2.5375 0,3.5 -0.25153,0.9625 -0.45733,0.175 -0.45733,-1.75 z M 0.2320027,673 c 0,-1.925 0.20579527,-2.7125 0.45732281,-1.75 0.25152755,0.9625 0.25152755,2.5375 0,3.5 C 0.43779797,675.7125 0.2320027,674.925 0.2320027,673 Z M 1398.4561,604.74607 c -0.2667,-0.69486 -0.3593,-15.65948 -0.2059,-33.25472 l 0.2789,-31.99135 0.2355,32.75 L 1399,605 h 101.9863 101.9864 l 0.2845,-32.50029 0.2844,-32.5003 -0.021,32.7503 -0.021,32.75029 -102.2796,0.25472 c -81.6652,0.20338 -102.3773,9e-5 -102.7643,-1.00865 z M 901.33621,529 c 0,-4.125 0.17651,-5.8125 0.39226,-3.75 0.21574,2.0625 0.21574,5.4375 0,7.5 -0.21575,2.0625 -0.39226,0.375 -0.39226,-3.75 z M 1915.2419,463.2633 1915,403.0266 l -33.75,-0.27705 -33.75,-0.27706 33.7814,-0.23625 c 26.2796,-0.18378 33.8875,0.0413 34.2594,1.01376 0.263,0.6875 0.3577,28.025 0.2106,60.75 l -0.2676,59.5 z M 263.07895,473.41667 c 0.048,-1.16495 0.28494,-1.4019 0.60416,-0.60417 0.28887,0.72187 0.25335,1.58438 -0.0789,1.91667 -0.33229,0.33229 -0.56864,-0.25834 -0.52522,-1.3125 z m 1135.37715,-5.6706 c -0.2667,-0.69486 -0.3659,-15.65948 -0.2205,-33.25472 L 1398.5,402.5 h 102.5 102.5 v 33 33 l -102.2796,0.25472 c -81.6652,0.20338 -102.3773,9e-5 -102.7643,-1.00865 z M 1603,435.5 V 403 h -102 -102 v 32.5 32.5 h 102 102 z m -846.75,27.81067 c 0.9625,-0.25152 2.5375,-0.25152 3.5,0 0.9625,0.25153 0.175,0.45733 -1.75,0.45733 -1.925,0 -2.7125,-0.2058 -1.75,-0.45733 z m -493.17105,-3.894 c 0.048,-1.16495 0.28494,-1.4019 0.60416,-0.60417 0.28887,0.72187 0.25335,1.58438 -0.0789,1.91667 -0.33229,0.33229 -0.56864,-0.25834 -0.52522,-1.3125 z M 774.75,403.33772 c 0.6875,-0.27741 1.8125,-0.27741 2.5,0 0.6875,0.27741 0.125,0.50439 -1.25,0.50439 -1.375,0 -1.9375,-0.22698 -1.25,-0.50439 z m -40.96648,-1.07612 c 2.90594,-0.20265 7.40594,-0.20052 10,0.005 2.59406,0.20525 0.21648,0.37104 -5.28352,0.36844 -5.5,-0.003 -7.62242,-0.17053 -4.71648,-0.37317 z m 384.96648,-0.01 c 9.4875,-0.16436 25.0125,-0.16436 34.5,0 9.4875,0.16436 1.725,0.29883 -17.25,0.29883 -18.975,0 -26.7375,-0.13447 -17.25,-0.29883 z M 150.07895,389.41667 c 0.048,-1.16495 0.28494,-1.4019 0.60416,-0.60417 0.28887,0.72187 0.25335,1.58438 -0.0789,1.91667 -0.3323,0.33229 -0.56864,-0.25834 -0.52522,-1.3125 z m 410,-92 c 0.048,-1.16495 0.28494,-1.4019 0.60416,-0.60417 0.28887,0.72187 0.25335,1.58438 -0.0789,1.91667 -0.33229,0.33229 -0.56864,-0.25834 -0.52522,-1.3125 z M 0.2320027,291 c 0,-1.925 0.20579527,-2.7125 0.45732281,-1.75 0.25152755,0.9625 0.25152755,2.5375 0,3.5 C 0.43779797,293.7125 0.2320027,292.925 0.2320027,291 Z M 150.15789,278 c 0,-1.375 0.22698,-1.9375 0.50439,-1.25 0.27741,0.6875 0.27741,1.8125 0,2.5 -0.27741,0.6875 -0.50439,0.125 -0.50439,-1.25 z M 1.1949487,267.5 c 0.02038,-1.65 0.2444986,-2.20394 0.498042,-1.23097 0.2535434,0.97297 0.2368691,2.32297 -0.037054,3 C 1.3820136,269.94606 1.174569,269.15 1.1949487,267.5 Z M 560.07895,261.41667 c 0.048,-1.16495 0.28494,-1.4019 0.60416,-0.60417 0.28887,0.72187 0.25335,1.58438 -0.0789,1.91667 -0.33229,0.33229 -0.56864,-0.25834 -0.52522,-1.3125 z M 297.75,245.33772 c 0.6875,-0.27741 1.8125,-0.27741 2.5,0 0.6875,0.27741 0.125,0.50439 -1.25,0.50439 -1.375,0 -1.9375,-0.22698 -1.25,-0.50439 z m 16.0625,-0.0208 c 0.72187,-0.28887 1.58438,-0.25335 1.91667,0.0789 0.33229,0.33229 -0.25834,0.56864 -1.3125,0.52522 -1.16495,-0.048 -1.4019,-0.28494 -0.60417,-0.60416 z m -52,-245.00000404 c 0.72187,-0.28887061 1.58438,-0.25334429 1.91667,0.0789474 0.33229,0.33229167 -0.25834,0.56864035 -1.3125,0.5252193 -1.16495,-0.0479839 -1.4019,-0.2849403 -0.60417,-0.6041667 z m 38,0 c 0.72187,-0.28887061 1.58438,-0.25334429 1.91667,0.0789474 0.33229,0.33229167 -0.25834,0.56864035 -1.3125,0.5252193 -1.16495,-0.0479839 -1.4019,-0.2849403 -0.60417,-0.6041667 z"
     id="path4230" /><path
     style="fill:#101886"
     d="M 58.839607,758.52777 C 30.445646,753.8731 9.5418312,735.51369 3.5691798,709.98483 0.31573036,696.07864 -0.16506521,660.20737 0.27885842,464.5 0.71745672,271.14035 0.90316307,261.22908 4.5415036,237 22.37024,118.27172 117.45166,22.596719 236.5,3.5934373 357.68548,-15.75099 476.273,44.840932 531.09998,154.11838 c 14.87753,29.65289 23.96639,59.70174 28.09386,92.88162 2.14791,17.26666 1.58187,55.49679 -1.07926,72.89318 -8.49965,55.56394 -32.34457,106.85233 -68.45996,147.25156 -14.43071,16.14241 -38.97484,38.75995 -37.28169,34.35526 8.79182,-22.8717 8.68111,-48.51136 -0.30663,-71.01334 -9.42998,-23.60919 -31.20817,-45.61931 -53.71444,-54.28648 -15.64873,-6.02633 -19.41951,-6.687 -37.85186,-6.63202 -15.63057,0.0466 -17.72499,0.27275 -26,2.80701 -64.02519,19.60807 -91.24138,92.22128 -55.25277,147.41525 8.95274,13.73037 25.75564,28.44284 39.54808,34.62795 6.17436,2.76885 3.79158,3.55171 -10.79531,3.54679 -27.9469,-0.009 -51.38679,-5.51582 -75.29927,-17.68903 C 187.11184,517.06802 157.10188,473.3454 151.05605,421.32501 150.61979,417.57125 150.19512,472.325 150.11233,543 c -0.1512,129.0839 -0.7568,157.40346 -3.60328,168.5 -5.85175,22.81213 -23.2112,39.27619 -48.003389,45.52742 -10.621647,2.6782 -28.38293,3.35001 -39.666054,1.50035 z M 154.09004,367 C 167.03334,309.98131 210.23008,265.29749 266.5,250.72024 c 14.87552,-3.85364 24.40126,-5.02804 40.5,-4.99312 10.51324,0.0228 17.27871,0.59186 24.6063,2.06968 26.61329,5.36734 55.0879,18.96616 74.79982,35.72266 l 6.90611,5.87067 -0.57346,-13.94506 C 412.42336,267.77528 411.42095,257.9 410.5112,253.5 399.58916,200.67579 360.01055,160.93726 306.76818,149.33779 c -11.48856,-2.50292 -38.94288,-2.54071 -50.42748,-0.0694 -26.25889,5.65048 -47.98651,16.92787 -66.43057,34.47978 -21.14413,20.12139 -30.85541,38.90116 -37.10389,71.75185 -1.96217,10.3159 -2.10875,14.88695 -2.35682,73.5 -0.16647,39.33328 0.0596,59.71999 0.60979,55 0.48088,-4.125 1.84475,-11.775 3.03083,-17 z M 861.27861,757.77253 C 860.09006,756.26561 769,598.16417 769,597.60818 c 0,-0.2096 2.02902,-0.68536 4.50894,-1.05725 16.92508,-2.53807 37.38156,-14.53668 47.37657,-27.7884 16.29182,-21.60023 17.45903,-52.8838 2.79584,-74.93389 -8.13753,-12.23698 -23.04499,-23.3 -36.71571,-27.24722 -9.32011,-2.69104 -28.34508,-3.53507 -80.21564,-3.55873 L 657,463 v -30.0823 -30.08229 l 64.25,0.45319 c 67.39328,0.47535 73.24123,0.81814 89.25,5.2315 11.23547,3.09743 30.76824,12.7133 39.99686,19.69021 25.73965,19.45939 43.15525,47.61312 49.04775,79.28969 2.58821,13.91354 1.64091,37.9547 -1.97017,50 -5.69497,18.99644 -17.49934,39.15596 -30.78408,52.57311 -4.34209,4.38537 -6.75454,7.57785 -6.40825,8.48026 0.30545,0.79599 14.11919,24.89378 30.6972,53.55065 24.98523,43.18965 29.90908,52.31717 28.78126,53.35296 -0.74831,0.68726 -13.06057,7.90666 -27.36057,16.04312 -14.3,8.13646 -26.94899,15.41263 -28.10886,16.16926 -1.69946,1.10863 -2.3037,1.12866 -3.11253,0.10317 z M 657,629 V 516 h 34 34 V 629 742 H 691 657 Z M 966,572.5 V 403 h 34 34 V 572.5 742 h -34 -34 z m 136,0 V 403 h 34 34 v 64.24755 64.24755 l 76.2525,-76.24762 76.2525,-76.24762 24.2476,24.24756 24.2475,24.24757 -76.2451,76.24998 -76.245,76.24998 -24.255,-24.23982 L 1170,531.51531 V 636.75765 742 h -34 -34 z m 160,73 V 549 h 34 34 v 96.5 96.5 h -34 -34 z m 137,64 V 677 h 102 102 v 32.5 32.5 h -102 -102 z m 273,-137 V 403 h 34 34 v 91.74219 91.74218 l 24.0007,-23.9851 24.0008,-23.9851 29.4992,29.48656 L 1847,597.48729 V 500.24364 403 h 33.8352 33.8351 l 0.6649,90.16542 c 0.3656,49.59099 0.6648,125.86599 0.6648,169.5 V 742 H 1881.5 1847 V 717.7465 693.49299 L 1793.5,640 1740,586.50701 V 664.2535 742 h -34 -34 z m -273,0 V 540 h 102 102 v 32.5 32.5 h -102 -102 z m 0,-137 V 403 h 102 102 v 32.5 32.5 h -102 -102 z"
     id="path4228" /></g></g>
</svg>
