<?xml version="1.0" encoding="UTF-8" standalone="no"?>
<svg
   width="175pt"
   height="265pt"
   viewBox="0 0 175 265"
   version="1.2"
   id="svg140"
   sodipodi:docname="logo-Telecom.svg"
   inkscape:version="1.1.1 (1:1.1+202109281949+c3084ef5ed)"
   xmlns:inkscape="http://www.inkscape.org/namespaces/inkscape"
   xmlns:sodipodi="http://sodipodi.sourceforge.net/DTD/sodipodi-0.dtd"
   xmlns="http://www.w3.org/2000/svg"
   xmlns:svg="http://www.w3.org/2000/svg">
  <sodipodi:namedview
     id="namedview73"
     pagecolor="#ffffff"
     bordercolor="#666666"
     borderopacity="1.0"
     inkscape:pageshadow="2"
     inkscape:pageopacity="0.0"
     inkscape:pagecheckerboard="0"
     inkscape:document-units="pt"
     showgrid="false"
     inkscape:zoom="2.3886792"
     inkscape:cx="116.80095"
     inkscape:cy="310.63191"
     inkscape:window-width="1440"
     inkscape:window-height="863"
     inkscape:window-x="1920"
     inkscape:window-y="0"
     inkscape:window-maximized="1"
     inkscape:current-layer="surface2421" />
  <defs
     id="defs5">
    <clipPath
       id="clip1">
      <path
         d="M 0 0.925781 L 174.832031 0.925781 L 174.832031 178 L 0 178 Z M 0 0.925781 "
         id="path2" />
    </clipPath>
  </defs>
  <g
     id="surface2421">
    <g
       clip-path="url(#clip1)"
       clip-rule="nonzero"
       id="g9"
       transform="matrix(1,0,0,1.5034665,0,-0.46609968)">
      <path
         style="fill:#fdfdfd;fill-opacity:1;fill-rule:nonzero;stroke:none"
         d="M 0,0.925781 V 177.70703 H 174.83203 V 0.925781 H 0"
         id="path7" />
    </g>
    <path
       style=" stroke:none;fill-rule:nonzero;fill:rgb(15.791321%,17.575073%,16.375732%);fill-opacity:1;"
       d="M 28.484375 240.742188 C 21.828125 236.160156 18.242188 233.71875 14.878906 231.21875 C 13.257812 233.890625 12.324219 237.027344 12.324219 240.386719 C 12.324219 246.46875 15.394531 251.839844 20.066406 255.027344 C 22.011719 251.191406 24.628906 246.917969 28.484375 240.742188 "
       id="path11" />
    <path
       style=" stroke:none;fill-rule:nonzero;fill:rgb(15.791321%,17.575073%,16.375732%);fill-opacity:1;"
       d="M 45.914062 244.277344 C 43.175781 247.1875 38.785156 247.613281 35.640625 245.632812 C 35.035156 245.25 30.707031 242.265625 30.707031 242.265625 C 25.921875 249.019531 23.464844 252.414062 20.824219 255.519531 C 23.511719 257.164062 26.667969 258.109375 30.050781 258.109375 C 39.550781 258.109375 47.304688 250.628906 47.75 241.234375 C 47.367188 242.367188 46.734375 243.414062 45.914062 244.277344 "
       id="path13" />
    <path
       style=" stroke:none;fill-rule:nonzero;fill:rgb(15.791321%,17.575073%,16.375732%);fill-opacity:1;"
       d="M 42.640625 234.292969 C 42.050781 233.90625 38.25 231.378906 38.25 231.378906 C 35.140625 235.964844 34.652344 236.640625 32.273438 240.046875 C 32.273438 240.046875 36.40625 242.722656 37.003906 243.089844 C 39.144531 244.410156 41.984375 244.015625 43.648438 242.160156 C 44.292969 241.449219 44.746094 240.5625 44.921875 239.632812 C 45.253906 237.90625 44.703125 235.652344 42.640625 234.292969 "
       id="path15" />
    <path
       style=" stroke:none;fill-rule:nonzero;fill:rgb(15.791321%,17.575073%,16.375732%);fill-opacity:1;"
       d="M 29.882812 238.507812 C 32.128906 234.925781 34.160156 231.734375 37.351562 226.910156 C 37.351562 226.910156 44.050781 231.328125 44.648438 231.753906 C 45.351562 232.253906 45.863281 232.757812 46.269531 233.242188 C 43.523438 227.011719 37.296875 222.660156 30.050781 222.660156 C 24.273438 222.660156 19.144531 225.425781 15.90625 229.703125 C 19.476562 231.816406 23.738281 234.558594 29.882812 238.507812 "
       id="path17" />
    <path
       style=" stroke:none;fill-rule:nonzero;fill:rgb(15.791321%,17.575073%,16.375732%);fill-opacity:1;"
       d="M 13.289062 227.621094 C 13.296875 226.386719 12.296875 225.382812 11.0625 225.378906 C 9.828125 225.375 8.824219 226.371094 8.820312 227.605469 C 8.816406 228.839844 9.8125 229.84375 11.046875 229.851562 C 12.28125 229.855469 13.285156 228.855469 13.289062 227.621094 "
       id="path19" />
    <path
       style=" stroke:none;fill-rule:nonzero;fill:rgb(15.791321%,17.575073%,16.375732%);fill-opacity:1;"
       d="M 16.867188 221.773438 C 17.21875 221.519531 17.300781 221.160156 17.101562 220.882812 L 17.09375 220.875 C 16.871094 220.5625 16.53125 220.558594 16.179688 220.8125 L 15.632812 221.203125 L 16.320312 222.160156 Z M 14.859375 221.109375 L 15.910156 220.355469 C 16.53125 219.910156 17.179688 219.984375 17.566406 220.523438 L 17.570312 220.53125 C 17.996094 221.132812 17.742188 221.785156 17.152344 222.207031 L 16.621094 222.585938 L 17.238281 223.445312 L 16.765625 223.78125 L 14.859375 221.109375 "
       id="path21" />
    <path
       style=" stroke:none;fill-rule:nonzero;fill:rgb(15.791321%,17.575073%,16.375732%);fill-opacity:1;"
       d="M 21.8125 219.027344 L 21.808594 219.019531 C 21.550781 218.4375 20.910156 218.140625 20.316406 218.402344 C 19.71875 218.664062 19.511719 219.324219 19.769531 219.910156 L 19.773438 219.917969 C 20.03125 220.5 20.671875 220.796875 21.269531 220.535156 C 21.863281 220.273438 22.070312 219.609375 21.8125 219.027344 Z M 19.222656 220.171875 L 19.21875 220.160156 C 18.847656 219.316406 19.1875 218.320312 20.109375 217.914062 C 21.03125 217.503906 21.984375 217.921875 22.359375 218.765625 L 22.363281 218.773438 C 22.734375 219.621094 22.394531 220.617188 21.472656 221.023438 C 20.550781 221.433594 19.597656 221.015625 19.222656 220.171875 "
       id="path23" />
    <path
       style=" stroke:none;fill-rule:nonzero;fill:rgb(15.791321%,17.575073%,16.375732%);fill-opacity:1;"
       d="M 23.757812 216.671875 L 24.320312 216.550781 L 24.910156 219.242188 L 26.597656 218.875 L 26.710938 219.386719 L 24.460938 219.882812 L 23.757812 216.671875 "
       id="path25" />
    <path
       style=" stroke:none;fill-rule:nonzero;fill:rgb(15.791321%,17.575073%,16.375732%);fill-opacity:1;"
       d="M 28.398438 217.929688 L 26.980469 216.019531 L 27.65625 215.980469 L 28.660156 217.378906 L 29.503906 215.871094 L 30.164062 215.832031 L 28.976562 217.882812 L 29.054688 219.1875 L 28.476562 219.222656 L 28.398438 217.929688 "
       id="path27" />
    <path
       style=" stroke:none;fill-rule:nonzero;fill:rgb(15.791321%,17.575073%,16.375732%);fill-opacity:1;"
       d="M 32.515625 216.546875 L 31.484375 216.425781 L 31.542969 215.894531 L 34.191406 216.203125 L 34.128906 216.730469 L 33.09375 216.613281 L 32.777344 219.34375 L 32.203125 219.277344 L 32.515625 216.546875 "
       id="path29" />
    <path
       style=" stroke:none;fill-rule:nonzero;fill:rgb(15.791321%,17.575073%,16.375732%);fill-opacity:1;"
       d="M 36.148438 216.628906 L 38.476562 217.34375 L 38.324219 217.835938 L 36.546875 217.289062 L 36.296875 218.105469 L 37.871094 218.589844 L 37.71875 219.082031 L 36.144531 218.601562 L 35.886719 219.441406 L 37.683594 219.996094 L 37.535156 220.488281 L 35.183594 219.769531 L 36.148438 216.628906 "
       id="path31" />
    <path
       style=" stroke:none;fill-rule:nonzero;fill:rgb(15.791321%,17.575073%,16.375732%);fill-opacity:1;"
       d="M 39.613281 219.582031 L 39.617188 219.570312 C 40.058594 218.75 41.035156 218.40625 41.914062 218.882812 C 42.445312 219.167969 42.667969 219.527344 42.800781 219.941406 L 42.273438 220.140625 C 42.15625 219.800781 41.988281 219.523438 41.65625 219.34375 C 41.101562 219.046875 40.457031 219.285156 40.152344 219.851562 L 40.148438 219.859375 C 39.84375 220.421875 39.996094 221.101562 40.546875 221.398438 C 40.902344 221.59375 41.207031 221.570312 41.582031 221.472656 L 41.730469 221.980469 C 41.257812 222.128906 40.820312 222.148438 40.28125 221.859375 C 39.4375 221.402344 39.164062 220.410156 39.613281 219.582031 "
       id="path33" />
    <path
       style=" stroke:none;fill-rule:nonzero;fill:rgb(15.791321%,17.575073%,16.375732%);fill-opacity:1;"
       d="M 44.726562 220.71875 L 45.167969 221.089844 L 44.292969 222.136719 L 45.492188 223.144531 L 46.371094 222.097656 L 46.8125 222.46875 L 44.703125 224.984375 L 44.261719 224.613281 L 45.148438 223.554688 L 43.949219 222.546875 L 43.058594 223.605469 L 42.617188 223.234375 L 44.726562 220.71875 "
       id="path35" />
    <path
       style=" stroke:none;fill-rule:nonzero;fill:rgb(15.791321%,17.575073%,16.375732%);fill-opacity:1;"
       d="M 48.558594 224.277344 L 48.886719 224.699219 L 48.167969 227.480469 L 49.964844 226.089844 L 50.3125 226.539062 L 47.714844 228.546875 L 47.421875 228.167969 L 48.160156 225.308594 L 46.3125 226.734375 L 45.964844 226.285156 L 48.558594 224.277344 "
       id="path37" />
    <path
       style=" stroke:none;fill-rule:nonzero;fill:rgb(15.791321%,17.575073%,16.375732%);fill-opacity:1;"
       d="M 51.449219 228.441406 L 51.722656 228.949219 L 48.839844 230.519531 L 48.566406 230.011719 L 51.449219 228.441406 "
       id="path39" />
    <path
       style=" stroke:none;fill-rule:nonzero;fill:rgb(15.791321%,17.575073%,16.375732%);fill-opacity:1;"
       d="M 50.910156 233.832031 L 51.179688 233.144531 L 51.699219 233.359375 L 51.398438 234.0625 C 51.597656 234.113281 51.816406 234.097656 52.03125 234.023438 L 52.042969 234.019531 C 52.644531 233.8125 52.996094 233.203125 52.785156 232.585938 C 52.574219 231.96875 51.929688 231.707031 51.328125 231.914062 L 51.320312 231.917969 C 50.714844 232.125 50.367188 232.734375 50.578125 233.351562 C 50.648438 233.558594 50.769531 233.71875 50.910156 233.832031 Z M 50.691406 234.359375 C 50.414062 234.160156 50.199219 233.878906 50.074219 233.515625 C 49.746094 232.5625 50.238281 231.648438 51.113281 231.347656 L 51.121094 231.34375 C 51.996094 231.042969 52.960938 231.46875 53.289062 232.421875 C 53.617188 233.375 53.121094 234.289062 52.246094 234.589844 L 52.238281 234.59375 C 51.886719 234.714844 51.515625 234.714844 51.175781 234.605469 L 50.996094 235.0625 L 50.484375 234.847656 L 50.691406 234.359375 "
       id="path41" />
    <path
       style=" stroke:none;fill-rule:nonzero;fill:rgb(15.791321%,17.575073%,16.375732%);fill-opacity:1;"
       d="M 52.351562 236.359375 L 54.230469 236.140625 L 54.296875 236.710938 L 52.441406 236.929688 C 51.835938 237 51.546875 237.351562 51.605469 237.863281 C 51.667969 238.371094 52.011719 238.648438 52.613281 238.578125 L 54.488281 238.355469 L 54.554688 238.929688 L 52.707031 239.148438 C 51.734375 239.261719 51.179688 238.769531 51.082031 237.914062 C 50.980469 237.066406 51.40625 236.472656 52.351562 236.359375 "
       id="path43" />
    <path
       style=" stroke:none;fill-rule:nonzero;fill:rgb(15.791321%,17.575073%,16.375732%);fill-opacity:1;"
       d="M 54.578125 241.148438 L 54.390625 243.578125 L 53.875 243.535156 L 54.015625 241.6875 L 53.164062 241.617188 L 53.039062 243.261719 L 52.523438 243.222656 L 52.652344 241.582031 L 51.773438 241.511719 L 51.628906 243.386719 L 51.113281 243.347656 L 51.300781 240.898438 L 54.578125 241.148438 "
       id="path45" />
    <path
       style=" stroke:none;fill-rule:nonzero;fill:rgb(15.791321%,17.575073%,16.375732%);fill-opacity:1;"
       d="M 16.082031 260.539062 L 15.613281 260.207031 L 17.515625 257.527344 L 17.984375 257.859375 L 16.082031 260.539062 "
       id="path47" />
    <path
       style=" stroke:none;fill-rule:nonzero;fill:rgb(15.791321%,17.575073%,16.375732%);fill-opacity:1;"
       d="M 13.664062 258.679688 L 13.289062 258.300781 L 13.660156 255.453125 L 12.046875 257.054688 L 11.648438 256.652344 L 13.976562 254.339844 L 14.316406 254.679688 L 13.9375 257.609375 L 15.59375 255.964844 L 15.992188 256.367188 L 13.664062 258.679688 "
       id="path49" />
    <path
       style=" stroke:none;fill-rule:nonzero;fill:rgb(15.791321%,17.575073%,16.375732%);fill-opacity:1;"
       d="M 12.652344 253.4375 L 12.113281 253.378906 C 12.167969 252.964844 12.125 252.617188 11.902344 252.277344 C 11.703125 251.980469 11.445312 251.882812 11.234375 252.019531 L 11.226562 252.023438 C 11.03125 252.152344 11 252.332031 11.21875 252.917969 C 11.460938 253.59375 11.503906 254.035156 11 254.371094 L 10.992188 254.375 C 10.523438 254.683594 9.9375 254.507812 9.582031 253.964844 C 9.316406 253.5625 9.230469 253.164062 9.269531 252.742188 L 9.804688 252.757812 C 9.78125 253.128906 9.847656 253.4375 10.011719 253.6875 C 10.199219 253.972656 10.453125 254.039062 10.632812 253.921875 L 10.640625 253.914062 C 10.851562 253.777344 10.863281 253.589844 10.640625 252.980469 C 10.402344 252.308594 10.410156 251.871094 10.863281 251.570312 L 10.871094 251.566406 C 11.386719 251.230469 11.957031 251.433594 12.335938 252.007812 C 12.613281 252.425781 12.726562 252.917969 12.652344 253.4375 "
       id="path51" />
    <path
       style=" stroke:none;fill-rule:nonzero;fill:rgb(15.791321%,17.575073%,16.375732%);fill-opacity:1;"
       d="M 8.144531 250.144531 L 8.554688 251.101562 L 8.066406 251.3125 L 7.011719 248.863281 L 7.503906 248.652344 L 7.914062 249.609375 L 10.441406 248.523438 L 10.671875 249.058594 L 8.144531 250.144531 "
       id="path53" />
    <path
       style=" stroke:none;fill-rule:nonzero;fill:rgb(15.791321%,17.575073%,16.375732%);fill-opacity:1;"
       d="M 6.472656 247.085938 L 6.320312 246.53125 L 9.492188 245.671875 L 9.640625 246.230469 L 6.472656 247.085938 "
       id="path55" />
    <path
       style=" stroke:none;fill-rule:nonzero;fill:rgb(15.791321%,17.575073%,16.375732%);fill-opacity:1;"
       d="M 6.292969 243.628906 L 6.421875 244.660156 L 5.890625 244.730469 L 5.5625 242.085938 L 6.09375 242.019531 L 6.222656 243.050781 L 8.949219 242.710938 L 9.019531 243.289062 L 6.292969 243.628906 "
       id="path57" />
    <path
       style=" stroke:none;fill-rule:nonzero;fill:rgb(15.791321%,17.575073%,16.375732%);fill-opacity:1;"
       d="M 7.386719 240.316406 L 5.5 240.191406 L 5.535156 239.617188 L 7.398438 239.738281 C 8.007812 239.777344 8.355469 239.484375 8.386719 238.96875 C 8.421875 238.460938 8.132812 238.125 7.527344 238.085938 L 5.640625 237.964844 L 5.679688 237.390625 L 7.539062 237.507812 C 8.515625 237.570312 8.972656 238.15625 8.917969 239.011719 C 8.863281 239.863281 8.335938 240.375 7.386719 240.316406 "
       id="path59" />
    <path
       style=" stroke:none;fill-rule:nonzero;fill:rgb(15.791321%,17.575073%,16.375732%);fill-opacity:1;"
       d="M 6.765625 234.644531 L 6.503906 235.648438 L 5.988281 235.515625 L 6.65625 232.9375 L 7.175781 233.070312 L 6.914062 234.078125 L 9.574219 234.769531 L 9.425781 235.335938 L 6.765625 234.644531 "
       id="path61" />
    <path
       style=" stroke:none;fill-rule:nonzero;fill:rgb(15.791321%,17.575073%,16.375732%);fill-opacity:1;"
       d="M 23.359375 262.976562 C 23.863281 263.121094 24.25 263.007812 24.386719 262.527344 L 24.386719 262.519531 C 24.523438 262.042969 24.257812 261.742188 23.75 261.597656 L 23.566406 261.542969 L 23.171875 262.925781 Z M 22.734375 260.265625 L 24 260.625 C 25.316406 261 25.789062 261.832031 25.511719 262.8125 L 25.507812 262.820312 C 25.230469 263.800781 24.359375 264.304688 23.023438 263.925781 L 21.792969 263.574219 L 22.734375 260.265625 "
       id="path63" />
    <path
       style=" stroke:none;fill-rule:nonzero;fill:rgb(15.791321%,17.575073%,16.375732%);fill-opacity:1;"
       d="M 27.601562 261.417969 L 30.53125 261.5625 L 30.488281 262.503906 L 28.683594 262.417969 L 28.667969 262.765625 L 30.347656 262.847656 L 30.304688 263.679688 L 28.628906 263.597656 L 28.609375 263.96875 L 30.433594 264.058594 L 30.390625 265 L 27.433594 264.855469 L 27.601562 261.417969 "
       id="path65" />
    <path
       style=" stroke:none;fill-rule:nonzero;fill:rgb(15.791321%,17.575073%,16.375732%);fill-opacity:1;"
       d="M 36.765625 262.210938 C 37.046875 262.125 37.195312 261.941406 37.125 261.707031 L 37.121094 261.699219 C 37.046875 261.457031 36.835938 261.390625 36.546875 261.480469 L 36.246094 261.570312 L 36.46875 262.304688 Z M 34.878906 261.027344 L 36.355469 260.574219 C 37.230469 260.308594 37.945312 260.515625 38.183594 261.296875 L 38.1875 261.304688 C 38.429688 262.101562 37.953125 262.707031 37.066406 262.980469 L 36.707031 263.089844 L 36.980469 263.980469 L 35.882812 264.316406 L 34.878906 261.027344 "
       id="path67" />
    <path
       style=" stroke:none;fill-rule:nonzero;fill:rgb(15.791321%,17.575073%,16.375732%);fill-opacity:1;"
       d="M 41.84375 260.503906 L 41.160156 259.933594 L 41.296875 260.8125 Z M 40.003906 259.035156 L 40.996094 258.472656 L 43.96875 260.769531 L 42.882812 261.386719 L 42.496094 261.070312 L 41.449219 261.667969 L 41.523438 262.15625 L 40.457031 262.765625 L 40.003906 259.035156 "
       id="path69" />
    <path
       style=" stroke:none;fill-rule:nonzero;fill:rgb(15.791321%,17.575073%,16.375732%);fill-opacity:1;"
       d="M 45.675781 256.984375 C 45.875 256.792969 45.914062 256.59375 45.769531 256.4375 L 45.765625 256.429688 C 45.613281 256.269531 45.414062 256.308594 45.21875 256.488281 L 44.851562 256.828125 L 45.3125 257.320312 Z M 43.355469 256.910156 L 44.582031 255.761719 C 45.027344 255.347656 45.417969 255.191406 45.757812 255.207031 C 46.046875 255.214844 46.300781 255.328125 46.542969 255.585938 L 46.550781 255.59375 C 46.894531 255.960938 46.941406 256.394531 46.773438 256.824219 L 48.15625 257.136719 L 47.195312 258.03125 L 46.050781 257.753906 L 46.042969 257.761719 L 45.871094 257.921875 L 46.542969 258.640625 L 45.703125 259.425781 L 43.355469 256.910156 "
       id="path71" />
    <path
       style=" stroke:none;fill-rule:nonzero;fill:rgb(15.791321%,17.575073%,16.375732%);fill-opacity:1;"
       d="M 46.800781 253.332031 L 47.480469 252.402344 L 50.253906 254.4375 L 49.574219 255.363281 L 46.800781 253.332031 "
       id="path73" />
    <path
       style=" stroke:none;fill-rule:nonzero;fill:rgb(15.791321%,17.575073%,16.375732%);fill-opacity:1;"
       d="M 50.972656 252.445312 L 50.585938 251.574219 C 51.003906 251.363281 51.296875 251.03125 51.472656 250.667969 C 51.5625 250.480469 51.554688 250.378906 51.46875 250.339844 L 51.460938 250.335938 C 51.371094 250.289062 51.277344 250.363281 51.050781 250.664062 C 50.570312 251.289062 50.074219 251.800781 49.421875 251.484375 L 49.410156 251.480469 C 48.824219 251.191406 48.59375 250.511719 49.007812 249.660156 C 49.296875 249.0625 49.65625 248.6875 50.113281 248.46875 L 50.566406 249.3125 C 50.210938 249.5 49.949219 249.804688 49.808594 250.09375 C 49.734375 250.246094 49.75 250.34375 49.828125 250.382812 L 49.835938 250.386719 C 49.917969 250.425781 50.011719 250.367188 50.234375 250.070312 C 50.765625 249.351562 51.253906 248.933594 51.875 249.234375 L 51.886719 249.238281 C 52.535156 249.554688 52.671875 250.285156 52.269531 251.113281 C 51.960938 251.742188 51.511719 252.222656 50.972656 252.445312 "
       id="path75" />
    <path
       style=" stroke:none;fill-rule:nonzero;fill:rgb(15.791321%,17.575073%,16.375732%);fill-opacity:1;"
       d="M 64.410156 232.792969 L 67.746094 232.792969 L 67.746094 247.945312 L 64.410156 247.945312 L 64.410156 232.792969 "
       id="path77" />
    <path
       style=" stroke:none;fill-rule:nonzero;fill:rgb(15.791321%,17.575073%,16.375732%);fill-opacity:1;"
       d="M 80.148438 240.4375 L 77.507812 240.4375 L 77.507812 235.804688 L 80.085938 235.804688 C 81.753906 235.804688 82.789062 236.625 82.789062 238.117188 C 82.789062 239.417969 81.816406 240.4375 80.148438 240.4375 Z M 80.367188 232.792969 L 74.175781 232.792969 L 74.175781 247.945312 L 77.507812 247.945312 L 77.507812 243.398438 L 80.042969 243.398438 C 83.441406 243.398438 86.167969 241.5625 86.167969 238.054688 C 86.167969 234.960938 83.980469 232.792969 80.367188 232.792969 "
       id="path79" />
    <path
       style=" stroke:none;fill-rule:nonzero;fill:rgb(15.791321%,17.575073%,16.375732%);fill-opacity:1;"
       d="M 102.988281 240.4375 L 100.347656 240.4375 L 100.347656 235.804688 L 102.925781 235.804688 C 104.589844 235.804688 105.628906 236.625 105.628906 238.117188 C 105.628906 239.417969 104.65625 240.4375 102.988281 240.4375 Z M 103.207031 232.792969 L 97.015625 232.792969 L 97.015625 247.945312 L 100.347656 247.945312 L 100.347656 243.398438 L 102.882812 243.398438 C 106.28125 243.398438 109.007812 241.5625 109.007812 238.054688 C 109.007812 234.960938 106.820312 232.792969 103.207031 232.792969 "
       id="path81" />
    <path
       style=" stroke:none;fill-rule:nonzero;fill:rgb(15.791321%,17.575073%,16.375732%);fill-opacity:1;"
       d="M 120.824219 241.605469 L 118.8125 236.691406 L 116.800781 241.605469 Z M 117.320312 232.6875 L 120.394531 232.6875 L 126.886719 247.945312 L 123.402344 247.945312 L 122.015625 244.546875 L 115.609375 244.546875 L 114.226562 247.945312 L 110.824219 247.945312 L 117.320312 232.6875 "
       id="path83" />
    <path
       style=" stroke:none;fill-rule:nonzero;fill:rgb(15.791321%,17.575073%,16.375732%);fill-opacity:1;"
       d="M 137.777344 240.152344 C 139.398438 240.152344 140.328125 239.289062 140.328125 238.011719 L 140.328125 237.96875 C 140.328125 236.539062 139.335938 235.804688 137.710938 235.804688 L 134.398438 235.804688 L 134.398438 240.152344 Z M 131.066406 232.792969 L 137.992188 232.792969 C 139.917969 232.792969 141.410156 233.335938 142.40625 234.332031 C 143.25 235.175781 143.707031 236.367188 143.707031 237.792969 L 143.707031 237.839844 C 143.707031 240.285156 142.386719 241.820312 140.460938 242.535156 L 144.160156 247.945312 L 140.265625 247.945312 L 137.019531 243.097656 L 134.398438 243.097656 L 134.398438 247.945312 L 131.066406 247.945312 L 131.066406 232.792969 "
       id="path85" />
    <path
       style=" stroke:none;fill-rule:nonzero;fill:rgb(15.791321%,17.575073%,16.375732%);fill-opacity:1;"
       d="M 149.363281 232.792969 L 152.695312 232.792969 L 152.695312 247.945312 L 149.363281 247.945312 L 149.363281 232.792969 "
       id="path87" />
    <path
       style=" stroke:none;fill-rule:nonzero;fill:rgb(15.791321%,17.575073%,16.375732%);fill-opacity:1;"
       d="M 164.796875 238.878906 C 162.179688 238.207031 161.527344 237.859375 161.527344 236.863281 C 161.527344 236.128906 162.199219 235.523438 163.476562 235.523438 C 164.753906 235.523438 166.074219 236.085938 167.414062 237.015625 L 169.148438 234.503906 C 167.613281 233.269531 165.726562 232.578125 163.519531 232.578125 C 160.425781 232.578125 158.21875 234.417969 158.21875 237.167969 C 158.21875 240.175781 160.1875 241.042969 163.238281 241.820312 C 165.769531 242.46875 166.289062 242.925781 166.289062 243.769531 C 166.289062 244.65625 165.46875 245.21875 164.105469 245.21875 C 162.371094 245.21875 160.945312 244.503906 159.578125 243.378906 L 157.609375 245.738281 C 159.429688 247.359375 161.746094 248.160156 164.039062 248.160156 C 167.308594 248.160156 169.601562 246.453125 169.601562 243.441406 C 169.601562 240.804688 167.871094 239.679688 164.796875 238.878906 "
       id="path89" />
    <path
       style=" stroke:none;fill-rule:nonzero;fill:rgb(15.791321%,17.575073%,16.375732%);fill-opacity:1;"
       d="M 169.113281 204.527344 L 5.71875 204.527344 L 5.71875 202.78125 L 169.113281 202.78125 L 169.113281 204.527344 "
       id="path91" />
    <path
       style="fill:none;stroke-width:10;stroke-linecap:butt;stroke-linejoin:miter;stroke:rgb(15.791321%,17.575073%,16.375732%);stroke-opacity:1;stroke-miterlimit:4;"
       d="M 1691.132812 604.726562 L 57.1875 604.726562 L 57.1875 622.1875 L 1691.132812 622.1875 Z M 1691.132812 604.726562 "
       transform="matrix(0.1,0,0,-0.1,0,265)"
       id="path93" />
    <path
       style=" stroke:none;fill-rule:nonzero;fill:rgb(13.729858%,12.159729%,12.548828%);fill-opacity:1;"
       d="M 169.113281 119.089844 L 5.71875 119.089844 L 5.71875 6.644531 L 169.113281 6.644531 L 169.113281 119.089844 "
       id="path95" />
    <path
       style=" stroke:none;fill-rule:nonzero;fill:rgb(74.902344%,12.843323%,32.125854%);fill-opacity:1;"
       d="M 168.972656 169.863281 L 168.90625 126.667969 L 161.582031 126.667969 C 160.820312 127.683594 161.335938 132.265625 159.015625 133.140625 C 151.164062 131.378906 158.320312 130.488281 155.625 126.667969 C 155.285156 126.6875 152.085938 126.664062 151.746094 126.667969 C 152.113281 126.71875 153.480469 128.253906 151.433594 130.011719 C 148.683594 148.117188 153.738281 155.496094 151.179688 169.851562 L 168.972656 169.863281 "
       id="path97" />
    <path
       style=" stroke:none;fill-rule:nonzero;fill:rgb(74.902344%,12.843323%,32.125854%);fill-opacity:1;"
       d="M 52.121094 140.042969 C 55.0625 138.660156 55.085938 135.589844 55.21875 133.574219 C 54.332031 132.574219 50.84375 132.515625 49.449219 132.769531 C 47.515625 134.386719 49.195312 137.277344 48.039062 139.160156 C 48.800781 140.785156 50.84375 139.648438 52.121094 140.042969 "
       id="path99" />
    <path
       style=" stroke:none;fill-rule:nonzero;fill:rgb(74.902344%,12.843323%,32.125854%);fill-opacity:1;"
       d="M 68.914062 161.476562 L 69.785156 161.726562 C 70.582031 161.886719 71.660156 161.921875 72.496094 161.570312 C 72.277344 160.992188 71.984375 160.441406 71.628906 160 C 70.675781 160.453125 69.765625 160.9375 68.914062 161.476562 "
       id="path101" />
    <path
       style=" stroke:none;fill-rule:nonzero;fill:rgb(74.902344%,12.843323%,32.125854%);fill-opacity:1;"
       d="M 69.144531 141.933594 C 67.371094 137.226562 73.777344 135.308594 76.242188 132.433594 L 79.558594 134.28125 C 79.199219 137.496094 73.324219 138.089844 73.683594 141.574219 C 74.296875 142.09375 74.832031 142.96875 75.628906 143.136719 C 75.90625 144.003906 75.183594 144.53125 74.65625 145.058594 C 72.082031 146.097656 70.753906 143.574219 69.144531 141.933594 Z M 72.496094 161.570312 C 73.195312 163.308594 73.277344 165.457031 72.441406 166.816406 L 63.867188 167.117188 L 63.867188 166.019531 C 65.375 164.039062 67.039062 162.636719 68.914062 161.476562 L 67.191406 160.992188 C 64.742188 159.316406 70.503906 156.914062 71.398438 156.261719 L 73.714844 159.96875 C 73.644531 160.804688 73.148438 161.292969 72.496094 161.570312 Z M 55.441406 165.691406 C 53.597656 162.503906 55.746094 157.191406 56.257812 154.148438 C 56.691406 153.714844 57.140625 153.125 57.890625 153.359375 C 58.402344 155.023438 55.957031 156.109375 57.59375 157.550781 C 59.285156 157.050781 61.507812 158.570312 63.207031 157.269531 C 62.320312 155.820312 60.472656 156.550781 59.214844 155.964844 L 59.214844 155.171875 L 62.996094 154.941406 C 63.585938 155.746094 66.261719 156.503906 65.671875 158.03125 C 63.152344 161.585938 58.847656 163.660156 55.441406 165.691406 Z M 52.464844 147.710938 C 52.855469 147.058594 53.628906 147.445312 54.1875 147.339844 C 54.390625 148.9375 56.878906 146.964844 55.921875 149.046875 L 55.640625 149.046875 C 54.585938 149.597656 52.855469 149.046875 52.464844 147.710938 Z M 57.371094 148.652344 C 58.652344 147.90625 60.433594 148.023438 60.140625 150.488281 L 58.066406 150.488281 C 57.667969 149.992188 57.066406 149.5 57.371094 148.652344 Z M 58.925781 131.292969 C 59.285156 130.710938 59.8125 129.617188 60.851562 129.976562 C 60.765625 130.84375 60.324219 132.453125 58.925781 131.792969 Z M 61.363281 150.738281 C 63.359375 151.175781 65.515625 149.65625 66.976562 151.246094 C 66.320312 152.632812 66.320312 154.941406 64.023438 153.636719 C 62.996094 152.835938 60.691406 153.199219 60.851562 151.246094 Z M 61.582031 132.59375 C 61.734375 130.933594 63.730469 131.585938 64.839844 131.070312 L 65.066406 131.792969 C 64.023438 132.59375 63.28125 134.339844 61.582031 133.679688 Z M 67.507812 145.226562 C 66.242188 146.097656 64.109375 145.796875 62.691406 145.507812 C 63.058594 144.9375 63.144531 144.273438 63.207031 143.628906 C 64.109375 142.898438 65.066406 141.308594 66.695312 141.8125 C 67.355469 142.746094 67.652344 143.917969 67.507812 145.226562 Z M 67.46875 132.039062 L 67.109375 136.574219 C 66.929688 137.289062 66.386719 138.703125 65.113281 138.167969 C 63.566406 138.53125 64.378906 136.652344 64.203125 135.960938 C 65.5625 134.800781 65.933594 132.300781 67.46875 132.039062 Z M 53.070312 145.507812 L 51.964844 145.507812 C 50.410156 144.9375 47 144.136719 46.859375 142.328125 C 49.011719 142.898438 50.925781 143.984375 53.070312 144.714844 Z M 79.785156 150.226562 C 77.71875 150.300781 75.9375 153.285156 74.164062 152.042969 C 75.203125 149.136719 77.488281 146.753906 78.457031 143.917969 C 80.15625 140.0625 82.933594 131.648438 81.746094 126.636719 L 73.804688 126.636719 C 71.21875 127.367188 73.136719 134.050781 70.460938 134.492188 C 69.726562 132.664062 69.941406 130.488281 67.84375 126.6875 L 63.550781 126.6875 C 63.878906 129.550781 63.4375 129.6875 63.207031 129.976562 C 61.734375 130.054688 61.878906 127.734375 60.027344 128.964844 C 58.402344 128.671875 57.964844 131.292969 56.257812 130.785156 C 55.675781 129.398438 54.039062 127.59375 52.257812 128.671875 C 53.8125 132.023438 61.582031 133.398438 57.890625 138.90625 C 57.140625 140.503906 57.738281 142.820312 55.746094 143.628906 C 52.257812 142.683594 49.011719 141.375 45.53125 140.503906 C 45.902344 141.8125 44.9375 143.628906 45.304688 144.9375 C 49.011719 145.4375 50.121094 149.289062 53.292969 150.449219 C 53.96875 150.957031 54.261719 151.53125 54.121094 152.335938 C 51.890625 153.285156 49.523438 151.320312 47.457031 150.449219 C 46.933594 150.660156 47.21875 151.175781 47.152344 151.53125 C 49.074219 153.789062 55.292969 152.835938 53.292969 157.550781 C 51.59375 161.40625 51.964844 167.789062 46.125 168.308594 C 45.597656 169.464844 47 169.378906 47.457031 169.894531 C 52.476562 170.402344 57.667969 165.605469 61.878906 169.601562 C 63.28125 169.601562 65.066406 168.71875 66.175781 169.863281 L 78.792969 169.863281 C 81.171875 165.269531 79.335938 162.332031 79.558594 158.117188 C 79.839844 157.050781 76.605469 155.964844 74.164062 156.550781 C 73.726562 156.253906 74.011719 155.671875 73.949219 155.171875 C 75.570312 153.285156 82.082031 156.109375 80.601562 151.53125 C 80.601562 151.175781 80.601562 150.300781 79.785156 150.226562 "
       id="path103" />
    <path
       style=" stroke:none;fill-rule:nonzero;fill:rgb(74.902344%,12.843323%,32.125854%);fill-opacity:1;"
       d="M 18.125 131.324219 C 10.214844 130.816406 5.972656 131.628906 5.863281 131.597656 L 5.863281 137.867188 L 7.34375 137.867188 C 9.125 138.402344 10.335938 138.4375 12.125 138.4375 C 18.761719 139.113281 24.347656 138.140625 30.933594 137.78125 C 30.191406 137.5625 29.441406 137.378906 28.761719 137.425781 C 27.644531 136.578125 26.9375 136.03125 27.203125 134.695312 C 28.949219 132.832031 32.144531 134.371094 34.195312 133.261719 C 36.003906 133.957031 34.796875 135.929688 35.226562 137.152344 C 35.046875 137.496094 34.847656 137.46875 34.636719 137.65625 C 36.652344 137.640625 38.800781 137.707031 41.117188 137.917969 L 41.117188 131.425781 C 31.324219 130.796875 24.417969 131.707031 18.125 131.324219 "
       id="path105" />
    <path
       style=" stroke:none;fill-rule:nonzero;fill:rgb(74.902344%,12.843323%,32.125854%);fill-opacity:1;"
       d="M 91.691406 144.363281 C 90.269531 144.730469 88.453125 145.015625 87.15625 144.160156 C 87.8125 142.695312 89.386719 143.566406 90.484375 143.347656 C 90.863281 143.859375 91.648438 143.277344 91.691406 144.363281 Z M 96.390625 159.796875 L 96.390625 161.710938 C 93.847656 162.589844 91.488281 165.359375 88.710938 164.140625 L 88.710938 162.40625 C 89.824219 161.886719 91.113281 163.449219 92.050781 161.015625 C 93.574219 161.199219 94.820312 158.949219 96.390625 159.796875 Z M 94.222656 133.71875 L 93.023438 135.0625 C 92.554688 135.0625 91.710938 133.628906 91.574219 133.046875 C 91.949219 132.613281 94.03125 133.210938 94.222656 133.71875 Z M 94.328125 136.828125 C 94.917969 137.261719 96.171875 137.296875 95.523438 138.929688 C 94.78125 139.589844 94.226562 137.867188 93.535156 137.65625 Z M 95.746094 154.480469 L 95.746094 156.699219 C 95.035156 156.582031 94.089844 157.066406 93.554688 156.328125 C 93.699219 154.613281 95.035156 154.734375 95.746094 154.480469 Z M 96.550781 148.6875 L 92.429688 148.6875 L 92.429688 147.171875 L 96.550781 147.171875 Z M 98.867188 167.34375 C 97.890625 169.621094 96.089844 167.964844 94.84375 167.34375 C 93.816406 166.925781 92.992188 169.9375 92.023438 167.757812 C 91.976562 167.234375 92.257812 167.027344 92.351562 166.613281 C 94.613281 165.054688 96.96875 166.308594 98.867188 167.34375 Z M 86.519531 158.300781 L 86.519531 157.507812 L 89.339844 157.507812 L 89.339844 158.300781 Z M 91.347656 139.691406 C 90.460938 140.382812 89.230469 140.703125 88.214844 140.816406 L 87.597656 138.777344 C 88.769531 138.675781 90.902344 138.097656 91.347656 139.691406 Z M 87.855469 136.523438 L 90.023438 136.523438 L 90.023438 137.3125 L 87.855469 137.3125 Z M 101.195312 138.191406 L 101.195312 140.636719 C 100.058594 140.503906 98.683594 141.011719 97.695312 140.242188 C 98.1875 138.46875 100.058594 138.578125 101.195312 138.191406 Z M 92.351562 129.128906 C 95.535156 129.921875 98.882812 130.300781 102.265625 130.4375 L 102.265625 126.664062 L 88.101562 126.664062 C 88.085938 129.652344 85.820312 133.835938 85.820312 133.835938 C 87.0625 133.824219 88.269531 133.910156 89.367188 134.429688 L 89.367188 135.222656 C 88.210938 134.9375 87.023438 134.789062 85.820312 134.71875 L 85.820312 146.976562 L 87.382812 146.976562 C 87.472656 147.265625 87.753906 147.417969 87.691406 147.773438 L 87.382812 148.359375 L 85.820312 148.359375 L 85.820312 149.851562 C 86.34375 149.878906 86.90625 150.023438 87.382812 149.886719 C 87.410156 149.953125 87.433594 150.023438 87.484375 150.082031 C 88.21875 150.21875 88.738281 151.195312 89.65625 150.683594 L 89.65625 151.472656 L 88.007812 151.472656 C 87.691406 151.472656 87.292969 151.382812 87.042969 151.089844 C 86.65625 151.242188 86.238281 151.304688 85.820312 151.246094 L 85.820312 152.371094 C 87.0625 151.910156 88.6875 152.4375 89.878906 152.492188 C 90.019531 152.789062 90.292969 152.9375 90.203125 153.300781 L 89.878906 153.875 C 88.640625 153.421875 87.109375 153.660156 85.820312 153.53125 L 85.820312 163.015625 C 86.265625 163.097656 86.710938 163.226562 87.0625 163.308594 C 87.191406 163.667969 87.566406 163.886719 87.566406 164.316406 C 87.085938 164.605469 86.453125 164.675781 85.820312 164.550781 L 85.820312 169.851562 L 102.265625 169.851562 L 102.265625 164.550781 C 101.636719 164.675781 100.074219 164.746094 99.59375 164.464844 C 99.59375 164.023438 101.234375 160.699219 101.683594 160.613281 L 102.265625 153.53125 C 100.972656 153.660156 99.457031 153.421875 98.210938 153.875 L 97.890625 153.300781 C 97.808594 152.9375 98.082031 152.789062 98.210938 152.492188 C 99.417969 152.4375 101.039062 151.910156 102.265625 152.371094 L 102.265625 151.246094 C 101.589844 151.328125 100.875 151.148438 100.390625 150.683594 C 100.34375 150.3125 100.621094 150.171875 100.71875 149.886719 C 101.191406 150.023438 101.746094 149.878906 102.265625 149.851562 L 102.265625 148.359375 L 100.71875 148.359375 L 100.390625 147.773438 C 100.34375 147.417969 100.621094 147.265625 100.71875 146.976562 L 102.265625 146.976562 L 102.265625 134.71875 C 101.074219 134.789062 99.871094 134.9375 98.726562 135.222656 L 98.726562 134.429688 C 99.824219 133.910156 101.039062 133.824219 102.265625 133.835938 L 102.265625 131.425781 C 99.34375 131.261719 96.4375 130.957031 93.683594 130.726562 C 92.992188 130.355469 91.976562 130.4375 91.507812 129.707031 C 91.691406 129.203125 92.023438 129.128906 92.351562 129.128906 "
       id="path107" />
    <path
       style=" stroke:none;fill-rule:nonzero;fill:rgb(74.902344%,12.843323%,32.125854%);fill-opacity:1;"
       d="M 19.441406 129.328125 C 26.429688 129.328125 34.109375 128.691406 41.195312 129.238281 L 41.195312 126.578125 L 5.792969 126.578125 C 5.757812 127.683594 5.792969 129.414062 5.792969 129.414062 C 10.222656 128.683594 15.730469 129.328125 19.441406 129.328125 "
       id="path109" />
    <path
       style=" stroke:none;fill-rule:nonzero;fill:rgb(74.902344%,12.843323%,32.125854%);fill-opacity:1;"
       d="M 14.007812 142.179688 C 12.027344 142.179688 9.871094 140.242188 7.886719 139.601562 L 6.894531 139.601562 L 5.898438 139.820312 L 5.855469 169.851562 L 41.238281 169.851562 L 41.238281 139.472656 C 32.003906 138.410156 23.953125 142.878906 14.007812 142.179688 "
       id="path111" />
    <path
       style=" stroke:none;fill-rule:nonzero;fill:rgb(74.902344%,12.843323%,32.125854%);fill-opacity:1;"
       d="M 142.179688 146.46875 C 141.371094 146.394531 139.550781 146.21875 139.398438 145.058594 C 139.210938 143.792969 139.140625 142.035156 141.949219 142.550781 C 144.035156 143.085938 144.867188 145.976562 142.179688 146.46875 Z M 137.171875 162.238281 C 136.292969 163.230469 136.539062 167.667969 134.410156 165.367188 C 132.136719 159.390625 135.210938 155.273438 135.726562 149.964844 C 137.050781 148.515625 138.515625 147.980469 139.347656 148.347656 C 139.550781 148.390625 140.664062 151.054688 140.847656 151.09375 C 141.101562 154.75 138.882812 154.929688 141.023438 160.992188 C 140.445312 161.980469 137.84375 161.476562 137.171875 162.238281 Z M 131.886719 142.871094 C 132.328125 142.285156 133.890625 141.460938 134.714844 141.601562 C 135.597656 141.964844 136.191406 143.640625 135.824219 144.804688 C 135.746094 145.742188 134.714844 145.523438 133.972656 145.523438 C 132.929688 145.160156 131.585938 144.105469 131.886719 142.871094 Z M 128.886719 140.597656 C 128.578125 141.832031 127.039062 143.277344 125.117188 142.910156 C 124.152344 142.179688 124.476562 140.792969 124.25 139.78125 C 124.476562 139.054688 126.605469 138.476562 127.5 138.699219 C 127.867188 139.203125 129.175781 139.871094 128.886719 140.597656 Z M 124.546875 134.492188 C 124.988281 136.238281 122.585938 136.550781 121.683594 136.648438 C 120.679688 136.113281 119.40625 134.160156 120.074219 132.523438 C 120.746094 131.855469 121.304688 130.988281 122.535156 131.324219 C 123.191406 132.40625 125.097656 132.957031 124.546875 134.492188 Z M 119.613281 163.621094 L 119.613281 160.929688 L 117.574219 159 L 116.714844 156.109375 C 115.714844 151.691406 116.859375 146.5625 117.65625 144.898438 C 117.621094 144.929688 117.613281 144.9375 117.578125 144.949219 C 116.835938 144.730469 115.65625 145.386719 115.207031 144.449219 C 115.878906 143.355469 114.921875 141.679688 116.027344 140.746094 C 116.835938 140.597656 118.847656 140.636719 119.367188 141.214844 C 119.3125 142.113281 119.277344 143.398438 118.460938 144.300781 C 119.308594 144.121094 120.242188 144.273438 120.90625 144.9375 C 120.691406 153.390625 121.507812 159.105469 122.195312 166.859375 Z M 111.59375 135.710938 C 110.171875 134.492188 109.289062 133.089844 109.644531 131.179688 C 110.539062 129.085938 113.546875 129.78125 114.789062 130.65625 C 115.742188 132.054688 117.457031 133.714844 114.828125 134.445312 C 115.09375 137.820312 112.640625 137.289062 111.59375 135.710938 Z M 147.105469 149.65625 C 145.035156 144.640625 149.753906 127.949219 142.128906 126.578125 C 141.296875 126.457031 140.59375 126.808594 139.933594 127.355469 C 141.265625 128.308594 142.269531 129.726562 142.496094 131.339844 C 140.714844 135.257812 137.023438 130.46875 134.503906 131.777344 L 134.503906 134.96875 C 133.460938 135.835938 132.722656 137 131.253906 136.5625 C 130.355469 135.542969 129.171875 134.824219 129.613281 133.378906 C 130.515625 131.492188 132.578125 132.21875 133.910156 131.339844 C 133.878906 131.292969 133.851562 131.246094 133.828125 131.203125 C 131.296875 130.585938 131.628906 126.636719 127.351562 126.636719 L 119.183594 126.636719 C 115.390625 127.808594 110.71875 129.976562 106.351562 126.664062 L 107.175781 132.050781 L 107.714844 133.890625 L 107.699219 135.5 L 109.625 137.175781 L 107.621094 138.886719 L 108.304688 143.03125 C 109.816406 143.480469 111.441406 143.554688 111.515625 144.9375 C 111.238281 147.199219 109.542969 149.792969 109.480469 152.132812 C 109.378906 155.023438 110.988281 166.96875 110.941406 169.851562 C 112.503906 169.710938 119.972656 169.40625 121.5 168.632812 C 121.507812 168.6875 123.582031 169.789062 123.582031 169.851562 C 126.234375 170.109375 129.703125 170.769531 128.839844 166.164062 L 126.917969 153.925781 C 124.640625 147.65625 128.839844 146.097656 130.242188 146.023438 L 131.347656 147.03125 C 130.957031 148.273438 130.753906 149.46875 130.644531 150.625 C 130.921875 151.09375 131.152344 151.589844 131 152.371094 C 131.09375 153.109375 130.898438 153.542969 130.621094 153.84375 C 131.0625 159.523438 133.777344 164.46875 133.828125 169.894531 L 140.984375 169.851562 L 143.585938 167.828125 L 143.039062 162.785156 L 143.34375 158.035156 L 143.179688 149.1875 C 144.277344 149.441406 145.359375 149.75 146.589844 150.226562 L 147.105469 149.65625 "
       id="path113" />
    <path
       style=" stroke:none;fill-rule:nonzero;fill:rgb(78.225708%,79.188538%,81.632996%);fill-opacity:1;"
       d="M 100.289062 89.828125 C 101.171875 89.828125 103.464844 90.035156 105.050781 89.769531 C 110.015625 88.941406 112.578125 87.328125 112.578125 83.78125 C 112.578125 80.234375 110.332031 78.972656 103.496094 78.972656 L 97.210938 78.972656 L 97.210938 99.03125 C 97.699219 99.003906 98.226562 98.957031 98.75 98.957031 C 99.242188 98.957031 99.730469 99.003906 100.289062 99.03125 Z M 100.289062 80.117188 C 101.347656 80.058594 103.851562 80.027344 105.367188 80.144531 C 108.152344 80.351562 109.351562 81.933594 109.351562 83.929688 C 109.351562 86.535156 107.304688 88.382812 103.78125 88.675781 C 102.582031 88.765625 101.171875 88.765625 100.289062 88.675781 L 100.289062 80.117188 "
       id="path115" />
    <path
       style=" stroke:none;fill-rule:nonzero;fill:rgb(78.225708%,79.188538%,81.632996%);fill-opacity:1;"
       d="M 122.320312 90.425781 L 121.75 90.648438 C 120.460938 91.152344 120.496094 91.089844 118.148438 91.597656 C 115.382812 92.195312 112.535156 92.542969 112.386719 95.703125 C 112.308594 97.695312 114.394531 99.210938 116.746094 99.335938 C 119.058594 99.464844 121.371094 98.453125 122.128906 96.523438 L 122.128906 98.957031 L 126.753906 98.957031 L 126.753906 98.421875 L 125.164062 98.421875 L 125.164062 89.605469 C 125.164062 87.265625 124.746094 85.085938 119.742188 84.867188 C 118.375 84.804688 118.035156 84.929688 117.046875 85.054688 C 115.910156 85.214844 114.851562 85.5625 114.089844 85.84375 L 114.089844 90.078125 L 114.773438 90.078125 L 115.609375 88.3125 C 116.328125 86.792969 116.972656 85.148438 119.4375 85.371094 C 121.902344 85.59375 122.320312 86.953125 122.320312 88.40625 Z M 122.320312 92.417969 C 122.320312 93.238281 122.355469 93.746094 122.242188 94.566406 C 121.976562 96.398438 120.535156 98.421875 118.148438 98.546875 C 116.140625 98.671875 115.191406 97.09375 115.34375 95.640625 C 115.683594 92.386719 116.933594 92.796875 120.800781 91.597656 L 122.320312 91.121094 L 122.320312 92.417969 "
       id="path117" />
    <path
       style=" stroke:none;fill-rule:nonzero;fill:rgb(78.225708%,79.188538%,81.632996%);fill-opacity:1;"
       d="M 135.414062 98.957031 L 128.554688 98.957031 L 128.554688 98.421875 L 130.257812 98.421875 L 130.257812 85.78125 L 128.476562 85.78125 L 128.476562 85.214844 L 132.914062 85.214844 L 132.914062 88.089844 C 133.101562 87.046875 134.695312 85.117188 137.199219 85.117188 C 137.917969 85.117188 138.5625 85.277344 139.28125 85.59375 L 139.28125 90.585938 L 138.5625 90.585938 L 137.652344 88.277344 C 137.007812 86.667969 136.515625 85.625 135.53125 86.097656 C 132.949219 87.328125 133.179688 90.300781 133.179688 93.082031 L 133.179688 98.421875 L 135.414062 98.421875 L 135.414062 98.957031 "
       id="path119" />
    <path
       style=" stroke:none;fill-rule:nonzero;fill:rgb(78.225708%,79.188538%,81.632996%);fill-opacity:1;"
       d="M 145.972656 82.023438 C 145.972656 82.90625 145.101562 83.539062 144.113281 83.539062 C 143.164062 83.539062 142.292969 82.84375 142.292969 82.054688 C 142.292969 81.265625 143.128906 80.503906 144.078125 80.503906 C 145.101562 80.503906 145.972656 81.199219 145.972656 82.023438 Z M 141.195312 98.957031 L 141.195312 98.421875 L 142.9375 98.421875 L 142.9375 85.78125 L 141.308594 85.78125 L 141.308594 85.214844 L 145.894531 85.214844 L 145.894531 98.421875 L 147.449219 98.421875 L 147.449219 98.957031 L 141.195312 98.957031 "
       id="path121" />
    <path
       style=" stroke:none;fill-rule:nonzero;fill:rgb(78.225708%,79.188538%,81.632996%);fill-opacity:1;"
       d="M 158.765625 88.4375 C 158.046875 86.289062 157.324219 85.433594 155.355469 85.433594 C 153.648438 85.433594 151.484375 86.003906 151.335938 87.742188 C 151.21875 89.289062 153.15625 89.921875 154.898438 90.394531 C 157.855469 91.246094 161.308594 92.132812 161.195312 94.882812 C 161.117188 97.503906 158.5 99.433594 154.9375 99.367188 C 152.890625 99.335938 150.574219 98.671875 149.78125 98.199219 L 149.78125 93.683594 L 150.460938 93.683594 L 151.257812 95.957031 C 152.132812 98.515625 153.117188 98.546875 154.671875 98.671875 C 156.832031 98.863281 159.296875 97.980469 159.488281 96.210938 C 159.75 94.03125 156.265625 93.460938 154.066406 92.796875 C 152.511719 92.324219 149.476562 91.46875 149.476562 88.878906 C 149.476562 85.84375 153.421875 84.835938 155.503906 84.835938 C 157.25 84.835938 159.257812 85.402344 159.980469 85.78125 L 159.980469 89.921875 L 159.257812 89.921875 L 158.765625 88.4375 "
       id="path123" />
    <path
       style=" stroke:none;fill-rule:nonzero;fill:rgb(99.992371%,99.996948%,99.995422%);fill-opacity:1;"
       d="M 30.070312 54.558594 L 23.65625 54.558594 L 23.65625 72.878906 C 23.65625 73.707031 22.976562 74.339844 22.199219 74.339844 L 21.515625 74.339844 C 20.691406 74.339844 20.058594 73.707031 20.058594 72.878906 L 20.058594 54.558594 L 13.691406 54.558594 C 12.867188 54.558594 12.1875 54.023438 12.1875 53.199219 L 12.1875 52.664062 C 12.1875 51.835938 12.867188 51.300781 13.644531 51.300781 L 30.023438 51.300781 C 30.847656 51.300781 31.527344 51.835938 31.527344 52.664062 L 31.527344 53.199219 C 31.527344 54.023438 30.847656 54.558594 30.070312 54.558594 "
       id="path125" />
    <path
       style=" stroke:none;fill-rule:nonzero;fill:rgb(99.992371%,99.996948%,99.995422%);fill-opacity:1;"
       d="M 50.820312 74.339844 L 35.851562 74.339844 C 35.078125 74.339844 34.492188 73.753906 34.492188 72.976562 L 34.492188 52.664062 C 34.492188 51.835938 35.125 51.300781 35.902344 51.300781 L 50.140625 51.300781 C 50.96875 51.300781 51.597656 51.835938 51.597656 52.664062 L 51.597656 53.199219 C 51.597656 54.023438 50.96875 54.558594 50.140625 54.558594 L 38.089844 54.558594 L 38.089844 61.265625 L 49.167969 61.265625 C 49.996094 61.265625 50.628906 61.800781 50.628906 62.625 L 50.628906 63.160156 C 50.628906 63.984375 49.996094 64.519531 49.167969 64.519531 L 38.089844 64.519531 L 38.089844 71.082031 L 50.820312 71.082031 C 51.648438 71.082031 52.277344 71.617188 52.277344 72.441406 L 52.277344 72.976562 C 52.277344 73.804688 51.648438 74.339844 50.820312 74.339844 "
       id="path127" />
    <path
       style=" stroke:none;fill-rule:nonzero;fill:rgb(99.992371%,99.996948%,99.995422%);fill-opacity:1;"
       d="M 71.085938 74.339844 L 55.972656 74.339844 L 55.972656 52.761719 C 55.972656 51.933594 56.605469 51.300781 57.429688 51.300781 L 58.109375 51.300781 C 58.886719 51.300781 59.570312 51.933594 59.570312 52.761719 L 59.570312 71.082031 L 71.085938 71.082031 C 71.914062 71.082031 72.542969 71.617188 72.542969 72.441406 L 72.542969 72.976562 C 72.542969 73.804688 71.914062 74.339844 71.085938 74.339844 "
       id="path129" />
    <path
       style=" stroke:none;fill-rule:nonzero;fill:rgb(99.992371%,99.996948%,99.995422%);fill-opacity:1;"
       d="M 91.253906 74.339844 L 76.285156 74.339844 C 75.507812 74.339844 74.925781 73.753906 74.925781 72.976562 L 74.925781 52.664062 C 74.925781 51.835938 75.554688 51.300781 76.332031 51.300781 L 90.574219 51.300781 C 91.398438 51.300781 92.03125 51.835938 92.03125 52.664062 L 92.03125 53.199219 C 92.03125 54.023438 91.398438 54.558594 90.574219 54.558594 L 78.519531 54.558594 L 78.519531 61.265625 L 89.601562 61.265625 C 90.425781 61.265625 91.058594 61.800781 91.058594 62.625 L 91.058594 63.160156 C 91.058594 63.984375 90.425781 64.519531 89.601562 64.519531 L 78.519531 64.519531 L 78.519531 71.082031 L 91.253906 71.082031 C 92.082031 71.082031 92.710938 71.617188 92.710938 72.441406 L 92.710938 72.976562 C 92.710938 73.804688 92.082031 74.339844 91.253906 74.339844 "
       id="path131" />
    <path
       style=" stroke:none;fill-rule:nonzero;fill:rgb(99.992371%,99.996948%,99.995422%);fill-opacity:1;"
       d="M 111.273438 74.339844 L 101.75 74.339844 C 98.738281 74.339844 96.40625 71.761719 96.40625 68.796875 L 96.40625 56.695312 C 96.40625 53.730469 98.933594 51.300781 101.945312 51.300781 L 110.691406 51.300781 C 111.519531 51.300781 112.148438 51.835938 112.148438 52.664062 L 112.148438 53.199219 C 112.148438 54.023438 111.519531 54.558594 110.691406 54.558594 L 103.207031 54.558594 C 100.875 54.558594 100 55.917969 100 57.71875 L 100 68.066406 C 100 70.351562 101.457031 71.082031 103.257812 71.082031 L 111.273438 71.082031 C 112.101562 71.082031 112.734375 71.617188 112.734375 72.441406 L 112.734375 72.976562 C 112.734375 73.804688 112.101562 74.339844 111.273438 74.339844 "
       id="path133" />
    <path
       style=" stroke:none;fill-rule:nonzero;fill:rgb(99.992371%,99.996948%,99.995422%);fill-opacity:1;"
       d="M 131.296875 57.230469 C 131.296875 55.773438 130.082031 54.558594 128.621094 54.558594 L 122.453125 54.558594 C 120.945312 54.558594 119.777344 55.773438 119.777344 57.230469 L 119.777344 68.410156 C 119.777344 69.914062 120.945312 71.082031 122.402344 71.082031 L 128.621094 71.082031 C 130.082031 71.082031 131.296875 69.914062 131.296875 68.410156 Z M 129.496094 74.339844 L 121.574219 74.339844 C 118.5625 74.339844 116.183594 71.859375 116.183594 68.894531 L 116.183594 56.648438 C 116.183594 53.683594 118.757812 51.300781 121.773438 51.300781 L 129.304688 51.300781 C 132.316406 51.300781 134.890625 53.683594 134.890625 56.648438 L 134.890625 68.894531 C 134.890625 71.859375 132.460938 74.339844 129.496094 74.339844 "
       id="path135" />
    <path
       style=" stroke:none;fill-rule:nonzero;fill:rgb(99.992371%,99.996948%,99.995422%);fill-opacity:1;"
       d="M 159.386719 74.339844 L 158.703125 74.339844 C 157.925781 74.339844 157.246094 73.707031 157.246094 72.878906 L 157.246094 57.523438 L 152.386719 64.324219 C 151.949219 64.910156 151.5625 65.394531 150.832031 65.394531 L 150.347656 65.394531 C 149.617188 65.394531 149.230469 64.910156 148.789062 64.324219 L 143.933594 57.523438 L 143.933594 72.878906 C 143.933594 73.707031 143.25 74.339844 142.472656 74.339844 L 141.792969 74.339844 C 140.96875 74.339844 140.335938 73.707031 140.335938 72.878906 L 140.335938 52.664062 C 140.335938 51.886719 140.871094 51.300781 141.695312 51.300781 L 142.570312 51.300781 C 143.203125 51.300781 143.738281 51.886719 144.078125 52.371094 L 150.589844 61.554688 L 157.152344 52.371094 C 157.492188 51.886719 157.976562 51.300781 158.609375 51.300781 L 159.484375 51.300781 C 160.308594 51.300781 160.84375 51.886719 160.84375 52.664062 L 160.84375 72.878906 C 160.84375 73.707031 160.210938 74.339844 159.386719 74.339844 "
       id="path137" />
  </g>
</svg>
