<?xml version="1.0" encoding="UTF-8" standalone="no"?>
<svg
   xmlns:dc="http://purl.org/dc/elements/1.1/"
   xmlns:cc="http://creativecommons.org/ns#"
   xmlns:rdf="http://www.w3.org/1999/02/22-rdf-syntax-ns#"
   xmlns:svg="http://www.w3.org/2000/svg"
   xmlns="http://www.w3.org/2000/svg"
   xmlns:sodipodi="http://sodipodi.sourceforge.net/DTD/sodipodi-0.dtd"
   xmlns:inkscape="http://www.inkscape.org/namespaces/inkscape"
   inkscape:version="1.0 (1.0+r73+1)"
   sodipodi:docname="riken-logo.svg"
   viewBox="0 0 385 600"
   height="600"
   width="385"
   id="svg915"
   version="1.1">
  <metadata
     id="metadata921">
    <rdf:RDF>
      <cc:Work
         rdf:about="">
        <dc:format>image/svg+xml</dc:format>
        <dc:type
           rdf:resource="http://purl.org/dc/dcmitype/StillImage" />
        <dc:title></dc:title>
      </cc:Work>
    </rdf:RDF>
  </metadata>
  <defs
     id="defs919">
    <filter
       height="1.0604936"
       y="-0.030246776"
       width="1.0517814"
       x="-0.025890702"
       id="filter2955"
       style="color-interpolation-filters:sRGB"
       inkscape:collect="always">
      <feGaussianBlur
         id="feGaussianBlur2957"
         stdDeviation="1.817743"
         inkscape:collect="always" />
    </filter>
  </defs>
  <sodipodi:namedview
     width="7.5in"
     units="px"
     inkscape:current-layer="g923"
     inkscape:window-maximized="0"
     inkscape:window-y="27"
     inkscape:window-x="67"
     inkscape:cy="421"
     inkscape:cx="157.46781"
     inkscape:zoom="1.1068884"
     showgrid="false"
     id="namedview917"
     inkscape:window-height="1179"
     inkscape:window-width="2786"
     inkscape:pageshadow="2"
     inkscape:pageopacity="0"
     guidetolerance="10"
     gridtolerance="10"
     objecttolerance="10"
     borderopacity="1"
     bordercolor="#666666"
     pagecolor="#ffffff" />
  <g
     id="g923"
     inkscape:label="Image"
     inkscape:groupmode="layer">
    <rect
       transform="matrix(2.1347257,0,0,3.968326,-56.189937,-80.127821)"
       ry="11.233"
       rx="11.233"
       y="25.353046"
       x="33.846573"
       height="144.233"
       width="168.5"
       id="rect3761"
       style="opacity:0.31;fill:#000000;fill-opacity:1;stroke:none;filter:url(#filter2955)" />
    <rect
       style="fill:#ffffff;fill-opacity:1;stroke:none;stroke-width:2.81438"
       id="rect2902"
       width="350.17758"
       height="549.71826"
       x="17.798725"
       y="28.794445"
       rx="23.344479"
       ry="42.812569" />
    <g
       transform="translate(-329.57202,-17.179273)"
       id="g1802">
      <path
         id="path1806"
         d="m 611.21404,461.84131 c -3.575,-0.36576 -9.2,-1.67768 -12.5,-2.91537 -3.3,-1.23769 -7.8,-3.375 -10,-4.74957 -2.2,-1.37457 -5.9207,-4.06514 -8.26821,-5.97903 -2.34752,-1.9139 -6.50727,-6.82747 -9.24389,-10.91906 -2.87373,-4.29659 -5.91088,-10.47044 -7.18947,-14.61462 -1.61799,-5.24421 -2.21799,-9.73215 -2.22939,-16.67536 -0.012,-7.30527 0.53277,-11.19284 2.35803,-16.82758 1.30549,-4.03016 4.09741,-9.99462 6.20427,-13.25434 2.10687,-3.25972 6.17817,-8.16582 9.04735,-10.90244 2.86919,-2.73662 8.20673,-6.54689 11.8612,-8.46726 3.65448,-1.92038 9.28507,-4.17937 12.51241,-5.01999 3.22734,-0.84061 9.71085,-1.52305 14.4078,-1.51652 4.69694,0.007 11.0115,0.66958 14.03234,1.47344 3.02084,0.80387 8.27515,2.874 11.67624,4.60031 3.40109,1.7263 8.65171,5.33834 11.66805,8.02676 3.01634,2.68842 7.30632,7.77307 9.53329,11.29923 2.22697,3.52616 5.02057,9.26357 6.208,12.7498 1.23215,3.6175 2.36683,9.98755 2.64316,14.83859 0.33481,5.87772 -0.0191,10.63959 -1.1471,15.43539 -0.89721,3.81446 -3.08091,9.88946 -4.85268,13.5 -2.0048,4.08541 -5.6762,9.0526 -9.7214,13.15249 -3.575,3.62334 -8.60041,7.80686 -11.16757,9.29672 -2.56716,1.48986 -7.27557,3.62547 -10.46313,4.7458 -3.18756,1.12034 -8.73715,2.34088 -12.33243,2.7123 -3.59528,0.37143 -9.46187,0.37607 -13.03687,0.0103 z"
         style="fill:#01975e" />
      <path
         id="path1804"
         d="m 405.90303,565.7383 c -2.98522,-5.0875 -7.73647,-13.32334 -10.55833,-18.30186 -2.82186,-4.97853 -5.13066,-9.35999 -5.13066,-9.73658 0,-0.3766 1.6875,-1.38963 3.75,-2.25119 2.0625,-0.86156 4.9771,-2.74182 6.47688,-4.17836 1.49979,-1.43655 3.23187,-4.14201 3.84907,-6.01213 0.6172,-1.87013 0.85129,-4.83341 0.5202,-6.58506 -0.33108,-1.75165 -1.50996,-4.67348 -2.61972,-6.49296 -1.16465,-1.90946 -3.80591,-4.11987 -6.24709,-5.22804 -3.52247,-1.59901 -6.59314,-1.92357 -18.37235,-1.94186 -11.96072,-0.0186 -14.23667,-0.26603 -14.75,-1.60375 -0.33385,-0.86998 -0.60699,-3.48397 -0.60699,-5.80887 0,-2.32489 0.60413,-5.05327 1.3425,-6.06306 1.23571,-1.68994 2.65519,-1.79616 17.84495,-1.33542 14.8836,0.45145 17.0392,0.74629 21.97408,3.00555 3.00939,1.37775 7.11576,4.1979 9.12525,6.26701 2.00949,2.06911 4.66369,5.84429 5.89822,8.3893 1.31635,2.71365 2.40812,7.17108 2.64,10.77836 0.21747,3.3831 -0.13924,7.77106 -0.79269,9.75102 -0.65345,1.97996 -2.72804,5.83863 -4.6102,8.57481 -1.88216,2.73618 -3.42211,5.2714 -3.42211,5.63383 0,0.36242 2.97183,5.77669 6.60407,12.0317 3.63225,6.25501 6.36658,11.99166 6.0763,12.74811 -0.29027,0.75645 -2.97938,2.77803 -5.9758,4.49241 -2.99641,1.71437 -5.9295,3.11704 -6.51796,3.11704 -0.58847,0 -3.51239,-4.1625 -6.49762,-9.25 z m -42.63099,4.35838 c -0.65968,-1.23263 -1.058,-11.01038 -1.058,-25.97121 0,-20.47968 0.23018,-24.22449 1.57143,-25.56574 1.06418,-1.06418 3.40445,-1.56649 7.25,-1.55612 3.12321,0.008 6.2487,0.3772 6.94553,0.8195 0.98163,0.62308 1.20683,6.75634 1,27.23469 l -0.26696,26.4305 -7.192,0.29264 c -6.31061,0.25677 -7.32165,0.0504 -8.25,-1.68426 z m 74.142,0.69162 c -0.89188,-0.89188 -1.2,-11.11111 -1.2,-39.8 0,-28.68889 0.30812,-38.90812 1.2,-39.8 0.67104,-0.67104 3.88889,-1.2 7.3,-1.2 3.41111,0 6.62896,0.52896 7.3,1.2 0.89188,0.89188 1.2,11.11111 1.2,39.8 0,28.68889 -0.30812,38.90812 -1.2,39.8 -0.67104,0.67104 -3.88889,1.2 -7.3,1.2 -3.41111,0 -6.62896,-0.52896 -7.3,-1.2 z m 32.25678,-0.052 c -0.26424,-0.68862 -0.36262,-19.02612 -0.21861,-40.75 l 0.26183,-39.498 6.97624,-0.30085 c 5.70616,-0.24607 7.20813,0.0163 8.25,1.44113 0.87472,1.19626 1.27376,5.75469 1.27376,14.55085 0,7.04488 0.33281,12.80887 0.73958,12.80887 0.40676,0 8.46449,-7.71546 17.90606,-17.14546 l 17.16648,-17.14546 5.59394,5.29052 c 3.07667,2.90978 5.59394,5.75859 5.59394,6.33068 0,0.57209 -7.74568,8.83181 -17.21262,18.35494 -9.46694,9.52313 -17.92561,17.31478 -18.79705,17.31478 -0.87144,0 -3.34209,-1.8 -5.49033,-4 -2.14824,-2.2 -4.26457,-4 -4.70295,-4 -0.43838,0 -0.79705,9.92958 -0.79705,22.06574 0,13.29813 -0.41132,22.8343 -1.03518,24 -0.87203,1.62939 -2.13791,1.93426 -8.03139,1.93426 -4.6805,0 -7.15522,-0.41441 -7.47665,-1.25202 z m 38.60122,-0.6396 c -0.6422,-1.19999 -1.058,-9.78774 -1.058,-21.85153 0,-14.51906 0.34324,-20.34402 1.27376,-21.61659 1.04187,-1.42483 2.54384,-1.6872 8.25,-1.44113 l 6.97624,0.30085 v 23 23 l -7.192,0.29264 c -6.31061,0.25677 -7.32165,0.0504 -8.25,-1.68426 z m 32.36611,0.55445 c -0.28988,-0.75542 -0.39139,-4.25109 -0.22558,-7.76816 l 0.30147,-6.39469 h 24 24 v 7.5 7.5 l -23.77442,0.26816 c -19.42032,0.21904 -23.87094,0.0166 -24.30147,-1.10533 z m 65.63389,-0.55447 c -0.68987,-1.28903 -1.058,-14.98144 -1.058,-39.35151 0,-28.69319 0.29587,-37.77924 1.27376,-39.11659 1.04187,-1.42483 2.54384,-1.6872 8.25,-1.44113 l 6.97624,0.30085 0.27029,20.75 c 0.20873,16.02418 0.56107,20.75 1.54705,20.75 0.70222,0 3.03442,-1.8 5.18266,-4 2.14824,-2.2 4.33638,-4 4.86253,-4 0.52616,0 3.69733,2.5875 7.04706,5.75 l 6.09041,5.75 0.5,-21.70245 c 0.3177,-13.78987 0.90074,-22.10229 1.59913,-22.79913 0.64917,-0.64773 3.92417,-0.97422 8,-0.79755 l 6.90087,0.29913 v 40.5 40.5 l -6.97624,0.30085 c -5.70616,0.24607 -7.20813,-0.0163 -8.25,-1.44113 -0.70057,-0.95809 -1.27376,-3.75007 -1.27376,-6.2044 0,-4.34177 -0.30266,-4.76918 -11.19468,-15.80887 -6.15708,-6.24055 -11.77145,-11.34645 -12.47639,-11.34645 -0.98216,0 -1.34565,4.03141 -1.55532,17.25 l -0.27361,17.25 -7.192,0.29264 c -6.31061,0.25677 -7.32165,0.0504 -8.25,-1.68426 z m -65.63389,-32.44555 c -0.28988,-0.75542 -0.39139,-4.25109 -0.22558,-7.76816 l 0.30147,-6.39467 h 24 24 v 7.5 7.5 l -23.77442,0.26816 c -19.42032,0.21904 -23.87094,0.0166 -24.30147,-1.10533 z m -0.007,-33.01816 c -0.28605,-0.74543 -0.38442,-4.23293 -0.21861,-7.75 l 0.3015,-6.39467 h 24 24 l 0.29206,7.75 0.29207,7.75 h -24.07345 c -19.33405,0 -24.17584,-0.26683 -24.59354,-1.35533 z M 395.90193,458.89456 c -3.19666,-0.46742 -8.4771,-2.04583 -11.73431,-3.50758 -3.66202,-1.64342 -7.67259,-4.52903 -10.50862,-7.56098 -2.52253,-2.69678 -5.47033,-6.90148 -6.55067,-9.34377 -1.22551,-2.77047 -2.35115,-8.68166 -2.99296,-15.71723 -0.66305,-7.26845 -0.88418,-51.79752 -0.6221,-125.2767 0.39876,-111.80227 0.4483,-114.21959 2.5694,-125.39043 1.18954,-6.26474 3.70682,-16.00466 5.59395,-21.64427 1.88713,-5.63962 5.53302,-14.46392 8.10197,-19.60957 2.56895,-5.14565 7.08252,-12.95573 10.03015,-17.35573 2.94763,-4.4 8.26653,-11.29514 11.81977,-15.322536 3.55324,-4.0274 9.75559,-10.24609 13.78299,-13.81932 4.0274,-3.57323 11.63096,-9.38434 16.8968,-12.9136 5.26585,-3.52925 13.82278,-8.40216 19.01541,-10.82869 5.19263,-2.42652 13.93421,-5.78945 19.42574,-7.47317 5.49152,-1.68371 14.03459,-3.85171 18.98459,-4.81776 6.49471,-1.26753 13.8714,-1.75489 26.5,-1.75078 12.36099,0.004 20.28975,0.51967 27,1.75596 5.225,0.96265 14.72553,3.49601 21.11228,5.62968 6.38675,2.13368 15.16175,5.66872 19.5,7.85566 4.33825,2.18694 11.93772,6.66534 16.88772,9.952 4.95,3.28666 12.15,8.72374 16,12.0824 3.85,3.35866 10.06199,9.60394 13.80443,13.8784 3.74243,4.274466 9.20677,11.371756 12.14296,15.771756 2.9362,4.4 7.44011,12.21008 10.00871,17.35573 2.56859,5.14565 6.21299,13.96637 8.09865,19.6016 1.88567,5.63523 4.33226,15.53237 5.43687,21.99364 1.3231,7.73935 2.00838,16.29548 2.00838,25.07604 0,7.33055 -0.48034,16.84833 -1.06742,21.15063 -0.58708,4.3023 -2.17555,12.23207 -3.52994,17.62171 -1.35439,5.38964 -3.83175,13.26464 -5.50524,17.5 -1.67349,4.23536 -5.25486,11.91805 -7.9586,17.07266 -2.70373,5.15461 -7.50854,13.00874 -10.67734,17.45363 -3.1688,4.4449 -10.56208,12.93999 -16.42951,18.87799 -5.86743,5.93801 -11.20741,10.79637 -11.86663,10.79637 -0.76614,0 -0.96743,-0.81179 -0.5579,-2.25 0.35237,-1.2375 1.15013,-5.625 1.77279,-9.75 0.94415,-6.25481 0.85944,-8.8282 -0.51024,-15.5 -0.90329,-4.4 -3.07538,-10.925 -4.82688,-14.5 -2.01431,-4.11144 -5.60664,-8.93099 -9.77584,-13.11548 -3.94505,-3.95951 -9.09294,-7.8783 -12.82237,-9.76091 -3.42709,-1.72999 -8.80372,-3.81552 -11.94807,-4.63452 -3.14436,-0.819 -8.90292,-1.48909 -12.79681,-1.48909 -3.89389,0 -9.72519,0.68904 -12.95845,1.53119 -3.23325,0.84216 -8.55453,2.95743 -11.82506,4.7006 -3.27052,1.74317 -8.07619,5.08426 -10.67925,7.42464 -2.60306,2.34037 -6.39113,6.66299 -8.41792,9.6058 -2.0268,2.94282 -4.8676,8.70019 -6.3129,12.79417 -2.13031,6.03439 -2.62781,9.24213 -2.62781,16.9436 0,7.58873 0.50478,10.92884 2.50903,16.60204 1.37997,3.90613 4.17476,9.61157 6.21066,12.67878 2.03589,3.0672 5.49764,7.19932 7.69277,9.18249 2.19514,1.98318 6.22461,4.98003 8.95439,6.65968 2.76106,1.6989 4.67408,3.52179 4.31153,4.10841 -0.42925,0.69453 -4.10042,0.84319 -10.75435,0.4355 -5.55645,-0.34045 -13.67835,-1.53393 -18.04866,-2.65217 -4.37031,-1.11825 -11.57031,-3.79061 -16,-5.93859 -4.42969,-2.14798 -11.09826,-6.21404 -14.81904,-9.0357 -3.72079,-2.82166 -9.26527,-8.14758 -12.32107,-11.83537 -3.0558,-3.68779 -7.11817,-9.48255 -9.02748,-12.87724 -1.90931,-3.3947 -4.6358,-9.6947 -6.05887,-14 -1.42306,-4.30531 -2.97892,-8.25533 -3.45745,-8.77783 -0.49428,-0.53968 -0.88461,27.10278 -0.90375,64 -0.0185,35.7225 -0.45011,69.56849 -0.95909,75.2133 -0.55892,6.19875 -1.70566,12.02719 -2.89559,14.71723 -1.0836,2.44966 -4.03407,6.66039 -6.5566,9.35717 -2.80428,2.998 -6.84594,5.91727 -10.40141,7.51287 -3.19824,1.43528 -8.92868,3.05965 -12.73431,3.60971 -3.80562,0.55006 -7.59432,0.95414 -8.41932,0.89797 -0.825,-0.0562 -4.11545,-0.48457 -7.31211,-0.95199 z M 448.6813,239.4883 c 0.92878,-3.3 3.68507,-9.77545 6.12508,-14.38989 2.44002,-4.61444 6.75532,-11.24802 9.58957,-14.74129 2.83424,-3.49327 8.31038,-8.86683 12.16921,-11.94125 3.85882,-3.07442 10.61731,-7.40054 15.01887,-9.6136 4.40156,-2.21306 12.30645,-5.12201 17.56643,-6.46434 7.26389,-1.85372 12.20867,-2.44326 20.56358,-2.45169 8.02432,-0.008 13.16413,0.55955 19,2.09839 4.4,1.16022 12.09043,4.08566 17.08984,6.50097 4.99942,2.41531 11.39868,6.2165 14.22059,8.44709 2.8219,2.23058 5.59397,4.05561 6.16015,4.05561 0.6115,0 1.02942,-2.95153 1.02942,-7.2701 0,-4.22795 -0.84748,-10.32832 -2.0253,-14.57863 -1.11391,-4.01969 -3.31537,-9.86065 -4.89212,-12.9799 -1.57675,-3.11925 -4.90679,-8.43952 -7.40008,-11.82281 -2.49329,-3.3833 -7.37934,-8.52442 -10.85788,-11.42472 -3.47854,-2.9003 -10.39217,-7.20329 -15.36361,-9.56222 -6.33094,-3.00399 -11.87349,-4.78096 -18.5,-5.9312 -6.38015,-1.10748 -11.79692,-1.43363 -16.63434,-1.00159 -3.94532,0.35237 -9.79532,1.30269 -13,2.11181 -3.20467,0.80912 -9.87667,3.47441 -14.82667,5.92285 -5.33881,2.64076 -11.54972,6.7453 -15.26777,10.08983 -3.44728,3.10095 -8.28336,8.46269 -10.74685,11.91497 -2.4635,3.45228 -5.60508,9.26837 -6.9813,12.92464 -1.37622,3.65628 -3.17583,10.80112 -3.99913,15.87742 -1.05787,6.52263 -1.49809,16.98732 -1.50093,35.67965 -0.002,15.48336 0.36469,26.05611 0.88527,25.5 0.4891,-0.5225 1.64919,-3.65 2.57797,-6.95 z"
         style="fill:#1f3b8f" />
    </g>
  </g>
</svg>
